<svg width="135" height="41" viewBox="0 0 135 41" fill="none" xmlns="http://www.w3.org/2000/svg">
<path d="M130 40.0063H5C2.25 40.0063 0 37.7563 0 35.0063V5.00635C0 2.25635 2.25 0.00634766 5 0.00634766H130C132.75 0.00634766 135 2.25635 135 5.00635V35.0063C135 37.7563 132.75 40.0063 130 40.0063Z" fill="#0A1045"/>
<path d="M130 0.806348C132.32 0.806348 134.2 2.68635 134.2 5.00635V35.0063C134.2 37.3263 132.32 39.2063 130 39.2063H5C2.68 39.2063 0.8 37.3263 0.8 35.0063V5.00635C0.8 2.68635 2.68 0.806348 5 0.806348H130ZM130 0.00634766H5C2.25 0.00634766 0 2.25635 0 5.00635V35.0063C0 37.7563 2.25 40.0063 5 40.0063H130C132.75 40.0063 135 37.7563 135 35.0063V5.00635C135 2.25635 132.75 0.00634766 130 0.00634766Z" fill="#4E527B"/>
<path d="M47.4201 10.2465C47.4201 11.0865 47.1701 11.7565 46.6701 12.2465C46.1101 12.8365 45.3701 13.1365 44.4701 13.1365C43.6001 13.1365 42.8701 12.8365 42.2601 12.2365C41.6501 11.6365 41.3501 10.8865 41.3501 10.0065C41.3501 9.11646 41.6501 8.37646 42.2601 7.77646C42.8701 7.17646 43.6001 6.87646 44.4701 6.87646C44.9001 6.87646 45.3101 6.95646 45.7001 7.12646C46.0901 7.29646 46.4001 7.51646 46.6401 7.79646L46.1101 8.32646C45.7101 7.85646 45.1701 7.61646 44.4701 7.61646C43.8401 7.61646 43.2901 7.83646 42.8301 8.28646C42.3701 8.72646 42.1401 9.30646 42.1401 10.0165C42.1401 10.7265 42.3701 11.3065 42.8301 11.7465C43.2901 12.1865 43.8401 12.4165 44.4701 12.4165C45.1401 12.4165 45.7001 12.1965 46.1501 11.7465C46.4401 11.4565 46.6101 11.0465 46.6501 10.5265H44.4701V9.80646H47.3801C47.4001 9.95646 47.4201 10.1065 47.4201 10.2465Z" fill="white" stroke="white" stroke-width="0.2" stroke-miterlimit="10"/>
<path d="M52.0303 7.74635H49.3003V9.64635H51.7603V10.3663H49.3003V12.2663H52.0303V13.0063H48.5303V7.00635H52.0303V7.74635Z" fill="white" stroke="white" stroke-width="0.2" stroke-miterlimit="10"/>
<path d="M55.2801 13.0063H54.5101V7.74635H52.8301V7.00635H56.9501V7.74635H55.2701V13.0063H55.2801Z" fill="white" stroke="white" stroke-width="0.2" stroke-miterlimit="10"/>
<path d="M59.9399 13.0063V7.00635H60.7099V13.0063H59.9399Z" fill="white" stroke="white" stroke-width="0.2" stroke-miterlimit="10"/>
<path d="M64.1302 13.0063H63.3602V7.74635H61.6802V7.00635H65.8002V7.74635H64.1202V13.0063H64.1302Z" fill="white" stroke="white" stroke-width="0.2" stroke-miterlimit="10"/>
<path d="M73.6101 12.2265C73.0201 12.8365 72.2901 13.1365 71.4101 13.1365C70.5301 13.1365 69.8001 12.8365 69.2101 12.2265C68.6201 11.6165 68.3301 10.8765 68.3301 10.0065C68.3301 9.13646 68.6201 8.38646 69.2101 7.78646C69.8001 7.17646 70.5301 6.87646 71.4101 6.87646C72.2801 6.87646 73.0101 7.17646 73.6101 7.78646C74.2001 8.39646 74.5001 9.13646 74.5001 10.0065C74.4901 10.8865 74.2001 11.6265 73.6101 12.2265ZM69.7801 11.7265C70.2201 12.1765 70.7701 12.3965 71.4101 12.3965C72.0501 12.3965 72.6001 12.1765 73.0401 11.7265C73.4801 11.2765 73.7101 10.7065 73.7101 10.0065C73.7101 9.30646 73.4901 8.73646 73.0401 8.28646C72.6001 7.83646 72.0501 7.61646 71.4101 7.61646C70.7701 7.61646 70.2201 7.83646 69.7801 8.28646C69.3401 8.73646 69.1101 9.30646 69.1101 10.0065C69.1101 10.7065 69.3401 11.2765 69.7801 11.7265Z" fill="white" stroke="white" stroke-width="0.2" stroke-miterlimit="10"/>
<path d="M75.5801 13.0063V7.00635H76.5201L79.4401 11.6763H79.4701L79.4401 10.5163V7.00635H80.2101V13.0063H79.4101L76.3601 8.11635H76.3301L76.3601 9.27635V13.0063H75.5801Z" fill="white" stroke="white" stroke-width="0.2" stroke-miterlimit="10"/>
<path d="M68.14 21.7562C65.79 21.7562 63.87 23.5462 63.87 26.0062C63.87 28.4562 65.79 30.2562 68.14 30.2562C70.49 30.2562 72.41 28.4562 72.41 26.0062C72.41 23.5462 70.49 21.7562 68.14 21.7562ZM68.14 28.5862C66.85 28.5862 65.74 27.5262 65.74 26.0062C65.74 24.4762 66.85 23.4262 68.14 23.4262C69.43 23.4262 70.54 24.4762 70.54 26.0062C70.54 27.5262 69.42 28.5862 68.14 28.5862ZM58.82 21.7562C56.47 21.7562 54.55 23.5462 54.55 26.0062C54.55 28.4562 56.47 30.2562 58.82 30.2562C61.17 30.2562 63.09 28.4562 63.09 26.0062C63.09 23.5462 61.17 21.7562 58.82 21.7562ZM58.82 28.5862C57.53 28.5862 56.42 27.5262 56.42 26.0062C56.42 24.4762 57.53 23.4262 58.82 23.4262C60.11 23.4262 61.22 24.4762 61.22 26.0062C61.22 27.5262 60.11 28.5862 58.82 28.5862ZM47.74 23.0662V24.8662H52.06C51.93 25.8762 51.59 26.6262 51.08 27.1362C50.45 27.7662 49.47 28.4562 47.75 28.4562C45.09 28.4562 43.01 26.3162 43.01 23.6562C43.01 20.9962 45.09 18.8562 47.75 18.8562C49.18 18.8562 50.23 19.4162 51 20.1462L52.27 18.8762C51.19 17.8462 49.76 17.0562 47.74 17.0562C44.1 17.0562 41.04 20.0162 41.04 23.6662C41.04 27.3062 44.1 30.2762 47.74 30.2762C49.71 30.2762 51.19 29.6362 52.35 28.4262C53.54 27.2362 53.91 25.5562 53.91 24.2062C53.91 23.7862 53.88 23.3962 53.81 23.0762H47.74V23.0662ZM93.05 24.4662C92.7 23.5162 91.62 21.7562 89.41 21.7562C87.22 21.7562 85.4 23.4762 85.4 26.0062C85.4 28.3862 87.2 30.2562 89.62 30.2562C91.57 30.2562 92.7 29.0662 93.16 28.3762L91.71 27.4062C91.23 28.1162 90.57 28.5862 89.62 28.5862C88.67 28.5862 87.99 28.1462 87.56 27.2962L93.25 24.9462L93.05 24.4662ZM87.25 25.8862C87.2 24.2462 88.52 23.4062 89.47 23.4062C90.21 23.4062 90.84 23.7762 91.05 24.3062L87.25 25.8862ZM82.63 30.0062H84.5V17.5062H82.63V30.0062ZM79.57 22.7062H79.5C79.08 22.2062 78.28 21.7562 77.26 21.7562C75.13 21.7562 73.18 23.6262 73.18 26.0262C73.18 28.4062 75.13 30.2662 77.26 30.2662C78.27 30.2662 79.08 29.8162 79.5 29.2962H79.56V29.9062C79.56 31.5362 78.69 32.4062 77.29 32.4062C76.15 32.4062 75.44 31.5862 75.15 30.8962L73.52 31.5762C73.99 32.7062 75.23 34.0862 77.29 34.0862C79.48 34.0862 81.33 32.7962 81.33 29.6562V22.0162H79.56V22.7062H79.57ZM77.42 28.5862C76.13 28.5862 75.05 27.5062 75.05 26.0262C75.05 24.5262 76.13 23.4362 77.42 23.4362C78.69 23.4362 79.69 24.5362 79.69 26.0262C79.7 27.5062 78.7 28.5862 77.42 28.5862ZM101.81 17.5062H97.34V30.0062H99.21V25.2662H101.82C103.89 25.2662 105.92 23.7662 105.92 21.3862C105.92 19.0062 103.87 17.5062 101.81 17.5062ZM101.85 23.5262H99.2V19.2362H101.85C103.25 19.2362 104.04 20.3962 104.04 21.3762C104.04 22.3562 103.25 23.5262 101.85 23.5262ZM113.39 21.7362C112.04 21.7362 110.64 22.3362 110.06 23.6462L111.72 24.3362C112.07 23.6462 112.73 23.4162 113.42 23.4162C114.38 23.4162 115.37 23.9962 115.38 25.0262V25.1562C115.04 24.9662 114.32 24.6762 113.43 24.6762C111.64 24.6762 109.83 25.6562 109.83 27.4862C109.83 29.1562 111.29 30.2362 112.93 30.2362C114.18 30.2362 114.88 29.6762 115.31 29.0162H115.37V29.9862H117.17V25.1962C117.18 22.9762 115.52 21.7362 113.39 21.7362ZM113.16 28.5862C112.55 28.5862 111.7 28.2762 111.7 27.5262C111.7 26.5662 112.76 26.1962 113.68 26.1962C114.5 26.1962 114.89 26.3762 115.38 26.6162C115.24 27.7662 114.24 28.5862 113.16 28.5862ZM123.74 22.0062L121.6 27.4262H121.54L119.32 22.0062H117.31L120.64 29.5862L118.74 33.7962H120.69L125.82 22.0062H123.74ZM106.94 30.0062H108.81V17.5062H106.94V30.0062Z" fill="white"/>
<path d="M10.44 7.54656C10.15 7.85656 9.97998 8.33656 9.97998 8.94656V31.0666C9.97998 31.6866 10.15 32.1666 10.44 32.4666L10.51 32.5366L22.9 20.1566V20.0066V19.8566L10.51 7.47656L10.44 7.54656Z" fill="url(#paint0_linear_1141_3950)"/>
<path d="M27.0304 24.2866L22.9004 20.1566V20.0066V19.8566L27.0304 15.7266L27.1204 15.7766L32.0104 18.5566C33.4104 19.3466 33.4104 20.6466 32.0104 21.4466L27.1204 24.2266L27.0304 24.2866Z" fill="url(#paint1_linear_1141_3950)"/>
<path d="M27.1204 24.2263L22.9004 20.0063L10.4404 32.4663C10.9004 32.9563 11.6604 33.0163 12.5204 32.5263L27.1204 24.2263Z" fill="url(#paint2_linear_1141_3950)"/>
<path d="M27.1202 15.7863L12.5102 7.48633C11.6502 6.99633 10.8902 7.05634 10.4302 7.54634L22.9002 20.0063L27.1202 15.7863Z" fill="url(#paint3_linear_1141_3950)"/>
<path opacity="0.2" d="M27.0299 24.1362L12.5099 32.3862C11.6999 32.8462 10.9699 32.8162 10.5099 32.3962L10.4399 32.4662L10.5099 32.5362C10.9799 32.9562 11.6999 32.9862 12.5099 32.5262L27.1199 24.2262L27.0299 24.1362Z" fill="#0A1045"/>
<path opacity="0.12" d="M10.44 32.3263C10.15 32.0163 9.97998 31.5363 9.97998 30.9263V31.0763C9.97998 31.6963 10.15 32.1763 10.44 32.4763L10.51 32.4063L10.44 32.3263Z" fill="#0A1045"/>
<path opacity="0.12" d="M32.01 21.3063L27.02 24.1363L27.11 24.2263L32 21.4463C32.7 21.0463 33.05 20.5263 33.05 20.0063C33 20.4763 32.65 20.9463 32.01 21.3063Z" fill="#0A1045"/>
<path opacity="0.25" d="M12.5102 7.62629L32.0102 18.7063C32.6402 19.0663 33.0002 19.5263 33.0602 20.0063C33.0602 19.4863 32.7102 18.9563 32.0102 18.5663L12.5102 7.48628C11.1102 6.69628 9.97021 7.35629 9.97021 8.95629V9.10629C9.97021 7.49629 11.1202 6.83629 12.5102 7.62629Z" fill="white"/>
<defs>
<linearGradient id="paint0_linear_1141_3950" x1="21.7997" y1="8.71626" x2="5.01728" y2="25.4987" gradientUnits="userSpaceOnUse">
<stop stop-color="#00A0FF"/>
<stop offset="0.00657445" stop-color="#00A1FF"/>
<stop offset="0.2601" stop-color="#00BEFF"/>
<stop offset="0.5122" stop-color="#00D2FF"/>
<stop offset="0.7604" stop-color="#00DFFF"/>
<stop offset="1" stop-color="#00E3FF"/>
</linearGradient>
<linearGradient id="paint1_linear_1141_3950" x1="33.8348" y1="20.008" x2="9.63789" y2="20.008" gradientUnits="userSpaceOnUse">
<stop stop-color="#FFE000"/>
<stop offset="0.4087" stop-color="#FFBD00"/>
<stop offset="0.7754" stop-color="#FFA500"/>
<stop offset="1" stop-color="#FF9C00"/>
</linearGradient>
<linearGradient id="paint2_linear_1141_3950" x1="24.8274" y1="22.3024" x2="2.06913" y2="45.0607" gradientUnits="userSpaceOnUse">
<stop stop-color="#FF3A44"/>
<stop offset="1" stop-color="#C31162"/>
</linearGradient>
<linearGradient id="paint3_linear_1141_3950" x1="7.29748" y1="0.182535" x2="17.4601" y2="10.345" gradientUnits="userSpaceOnUse">
<stop stop-color="#32A071"/>
<stop offset="0.0685" stop-color="#2DA771"/>
<stop offset="0.4762" stop-color="#15CF74"/>
<stop offset="0.8009" stop-color="#06E775"/>
<stop offset="1" stop-color="#00F076"/>
</linearGradient>
</defs>
</svg>
