<svg width="120" height="41" viewBox="0 0 120 41" fill="none" xmlns="http://www.w3.org/2000/svg">
<path d="M110.135 0.00647766H9.53468C9.16798 0.00647766 8.80568 0.00647766 8.43995 0.00847766C8.1338 0.0104777 7.83009 0.0162877 7.521 0.0211777C6.84951 0.0290795 6.17961 0.0881539 5.5171 0.197888C4.85552 0.31001 4.21467 0.521393 3.61622 0.824888C3.0185 1.13095 2.47235 1.52865 1.99757 2.00355C1.5203 2.47711 1.12246 3.02449 0.81935 3.62464C0.5154 4.22359 0.304641 4.86542 0.19435 5.52796C0.0830109 6.18966 0.0230984 6.859 0.01515 7.52996C0.00587 7.83656 0.00489 8.14418 0 8.45082V31.5651C0.00489 31.8756 0.00587 32.1764 0.01515 32.487C0.0231008 33.1579 0.0830134 33.8272 0.19435 34.4889C0.304336 35.1518 0.515108 35.794 0.81935 36.3932C1.12233 36.9914 1.52022 37.5365 1.99757 38.0075C2.47054 38.4845 3.01705 38.8825 3.61622 39.1862C4.21467 39.4905 4.85545 39.7031 5.5171 39.817C6.17972 39.9258 6.84956 39.9849 7.521 39.9938C7.83009 40.0006 8.1338 40.0045 8.43995 40.0045C8.80567 40.0065 9.168 40.0065 9.53468 40.0065H110.135C110.494 40.0065 110.859 40.0065 111.219 40.0045C111.523 40.0045 111.836 40.0006 112.141 39.9938C112.811 39.9854 113.479 39.9263 114.141 39.817C114.804 39.7023 115.448 39.4897 116.049 39.1862C116.647 38.8823 117.193 38.4843 117.666 38.0075C118.142 37.5347 118.541 36.9899 118.848 36.3932C119.15 35.7936 119.358 35.1514 119.467 34.4889C119.578 33.8271 119.64 33.158 119.652 32.487C119.656 32.1764 119.656 31.8756 119.656 31.5651C119.664 31.2018 119.664 30.8405 119.664 30.4713V9.54261C119.664 9.1764 119.664 8.81312 119.656 8.45082C119.656 8.14418 119.656 7.83656 119.652 7.52992C119.64 6.8589 119.578 6.18971 119.467 5.52792C119.358 4.86576 119.149 4.22398 118.848 3.6246C118.23 2.42167 117.252 1.4425 116.049 0.824798C115.448 0.522045 114.804 0.310718 114.141 0.197798C113.48 0.0875804 112.811 0.0284854 112.141 0.0210377C111.836 0.0161577 111.523 0.0102977 111.219 0.00834766C110.859 0.00634766 110.494 0.00634766 110.135 0.00634766V0.00647766Z" fill="#4E527B"/>
<path d="M8.44487 39.1313C8.14019 39.1313 7.84287 39.1274 7.54058 39.1206C6.91436 39.1125 6.2896 39.058 5.67144 38.9575C5.09503 38.8583 4.53664 38.6736 4.0147 38.4096C3.49754 38.1479 3.02585 37.8046 2.6177 37.393C2.20364 36.9863 1.85891 36.5146 1.59719 35.9965C1.33258 35.4751 1.14945 34.9162 1.05419 34.3393C0.951311 33.7195 0.895651 33.0927 0.887687 32.4643C0.881347 32.2534 0.873047 31.5512 0.873047 31.5512V8.45069C0.873047 8.45069 0.881887 7.75928 0.887737 7.55615C0.895363 6.92883 0.950699 6.303 1.05327 5.68408C1.14871 5.1056 1.33197 4.5451 1.59673 4.02198C1.85749 3.50429 2.2003 3.03221 2.61187 2.62403C3.02297 2.21197 3.49617 1.86695 4.01421 1.60156C4.53495 1.33844 5.09228 1.15508 5.66753 1.05762C6.28772 0.956184 6.91465 0.901344 7.54304 0.893558L8.44536 0.881348H111.214L112.127 0.894048C112.75 0.901447 113.371 0.955798 113.985 1.05664C114.566 1.15532 115.13 1.33996 115.656 1.60449C116.694 2.13933 117.539 2.98551 118.071 4.02442C118.332 4.54393 118.512 5.09985 118.607 5.67334C118.71 6.29734 118.768 6.92809 118.78 7.56055C118.783 7.84375 118.783 8.14795 118.783 8.45069C118.791 8.82569 118.791 9.18262 118.791 9.54248V30.4711C118.791 30.8344 118.791 31.1889 118.783 31.5463C118.783 31.8715 118.783 32.1694 118.779 32.476C118.768 33.0972 118.711 33.7167 118.608 34.3295C118.515 34.9106 118.333 35.4739 118.068 35.9995C117.805 36.512 117.462 36.9796 117.053 37.3852C116.644 37.799 116.172 38.1443 115.653 38.4077C115.128 38.6737 114.566 38.8591 113.985 38.9575C113.367 39.0585 112.742 39.113 112.116 39.1206C111.823 39.1274 111.517 39.1313 111.219 39.1313L110.135 39.1333L8.44487 39.1313Z" fill="#0A1045"/>
<path d="M24.769 20.3072C24.7797 19.4725 25.0014 18.6541 25.4135 17.9282C25.8255 17.2022 26.4145 16.5923 27.1256 16.1551C26.6738 15.5099 26.0779 14.979 25.385 14.6045C24.6922 14.2299 23.9216 14.0221 23.1344 13.9974C21.4552 13.8212 19.8272 15.0023 18.9715 15.0023C18.0992 15.0023 16.7817 14.0149 15.363 14.0441C14.4453 14.0738 13.551 14.3406 12.7671 14.8187C11.9832 15.2967 11.3365 15.9697 10.8901 16.772C8.95607 20.1204 10.3987 25.0415 12.2513 27.7481C13.1782 29.0734 14.2615 30.5539 15.6789 30.5014C17.066 30.4438 17.584 29.6169 19.2583 29.6169C20.9171 29.6169 21.4031 30.5014 22.8493 30.468C24.3377 30.4438 25.2754 29.1367 26.1698 27.7988C26.8358 26.8545 27.3483 25.8108 27.6882 24.7063C26.8235 24.3406 26.0856 23.7284 25.5665 22.9461C25.0474 22.1638 24.77 21.246 24.769 20.3072Z" fill="white"/>
<path d="M22.0376 12.2172C22.8491 11.243 23.2489 9.99079 23.1521 8.72656C21.9123 8.85678 20.767 9.44934 19.9445 10.3862C19.5424 10.8438 19.2344 11.3763 19.0381 11.953C18.8419 12.5298 18.7612 13.1396 18.8008 13.7476C19.4209 13.7539 20.0344 13.6195 20.5951 13.3544C21.1558 13.0894 21.649 12.7005 22.0376 12.2172Z" fill="white"/>
<path d="M42.3022 27.146H37.5688L36.4321 30.5025H34.4272L38.9106 18.0845H40.9936L45.477 30.5025H43.438L42.3022 27.146ZM38.0591 25.5972H41.8111L39.9615 20.1499H39.9097L38.0591 25.5972Z" fill="white"/>
<path d="M55.1597 25.9763C55.1597 28.7898 53.6538 30.5974 51.3814 30.5974C50.8057 30.6275 50.2332 30.4949 49.7294 30.2147C49.2256 29.9346 48.8109 29.5183 48.5327 29.0134H48.4897V33.4978H46.6313V21.4489H48.4302V22.9548H48.4644C48.7553 22.4523 49.1771 22.0381 49.6847 21.7563C50.1923 21.4745 50.7669 21.3355 51.3472 21.3542C53.645 21.3542 55.1597 23.1706 55.1597 25.9763ZM53.2495 25.9763C53.2495 24.1433 52.3023 22.9382 50.857 22.9382C49.437 22.9382 48.482 24.1687 48.482 25.9763C48.482 27.8005 49.437 29.0222 50.857 29.0222C52.3023 29.0222 53.2495 27.8259 53.2495 25.9763Z" fill="white"/>
<path d="M65.1245 25.9763C65.1245 28.7898 63.6187 30.5974 61.3462 30.5974C60.7706 30.6275 60.1981 30.4949 59.6943 30.2147C59.1905 29.9346 58.7758 29.5183 58.4976 29.0134H58.4546V33.4977H56.5962V21.4489H58.395V22.9548H58.4292C58.7201 22.4523 59.1419 22.0381 59.6495 21.7563C60.1571 21.4744 60.7317 21.3355 61.312 21.3542C63.6099 21.3542 65.1245 23.1706 65.1245 25.9763ZM63.2144 25.9763C63.2144 24.1433 62.2671 22.9382 60.8218 22.9382C59.4019 22.9382 58.4468 24.1687 58.4468 25.9763C58.4468 27.8005 59.4019 29.0222 60.8218 29.0222C62.2671 29.0222 63.2144 27.8259 63.2144 25.9763H63.2144Z" fill="white"/>
<path d="M71.7105 27.0425C71.8482 28.274 73.0445 29.0825 74.6792 29.0825C76.2456 29.0825 77.3726 28.2739 77.3726 27.1636C77.3726 26.1997 76.6929 25.6226 75.0835 25.2271L73.4742 24.8394C71.1939 24.2886 70.1353 23.2222 70.1353 21.4917C70.1353 19.3491 72.0025 17.8774 74.6538 17.8774C77.2778 17.8774 79.0767 19.3491 79.1372 21.4917H77.2612C77.1489 20.2524 76.1245 19.5044 74.6274 19.5044C73.1304 19.5044 72.106 20.2612 72.106 21.3628C72.106 22.2407 72.7603 22.7573 74.3608 23.1528L75.729 23.4887C78.2769 24.0913 79.3355 25.1147 79.3355 26.9311C79.3355 29.2544 77.4849 30.7094 74.5415 30.7094C71.7876 30.7094 69.9282 29.2885 69.8081 27.0424L71.7105 27.0425Z" fill="white"/>
<path d="M83.3462 19.3062V21.4487H85.0679V22.9204H83.3462V27.9116C83.3462 28.687 83.6909 29.0483 84.4477 29.0483C84.6521 29.0448 84.8562 29.0304 85.0591 29.0053V30.4682C84.7188 30.5318 84.3729 30.5606 84.0268 30.5542C82.1938 30.5542 81.479 29.8657 81.479 28.1098V22.9204H80.1626V21.4487H81.479V19.3062H83.3462Z" fill="white"/>
<path d="M86.0649 25.9761C86.0649 23.1274 87.7427 21.3374 90.3589 21.3374C92.9839 21.3374 94.6538 23.1274 94.6538 25.9761C94.6538 28.8325 92.9927 30.6147 90.3589 30.6147C87.726 30.6147 86.0649 28.8325 86.0649 25.9761ZM92.7602 25.9761C92.7602 24.022 91.8647 22.8687 90.3589 22.8687C88.853 22.8687 87.9585 24.0308 87.9585 25.9761C87.9585 27.938 88.853 29.0825 90.3589 29.0825C91.8647 29.0825 92.7602 27.938 92.7602 25.9761H92.7602Z" fill="white"/>
<path d="M96.186 21.4489H97.9585V22.9899H98.0015C98.1214 22.5086 98.4034 22.0832 98.8 21.7854C99.1966 21.4875 99.6836 21.3352 100.179 21.3541C100.393 21.3534 100.607 21.3766 100.816 21.4235V23.1617C100.546 23.0791 100.264 23.0412 99.981 23.0494C99.711 23.0385 99.4418 23.0861 99.192 23.189C98.9421 23.2919 98.7175 23.4476 98.5335 23.6455C98.3496 23.8434 98.2106 24.0787 98.1262 24.3354C98.0417 24.5921 98.0139 24.864 98.0444 25.1324V30.5026H96.186L96.186 21.4489Z" fill="white"/>
<path d="M109.384 27.8433C109.134 29.4868 107.534 30.6147 105.486 30.6147C102.852 30.6147 101.217 28.8501 101.217 26.019C101.217 23.1792 102.861 21.3374 105.408 21.3374C107.913 21.3374 109.488 23.0581 109.488 25.8032V26.4399H103.093V26.5522C103.064 26.8854 103.105 27.2211 103.216 27.5369C103.326 27.8528 103.502 28.1416 103.732 28.3841C103.963 28.6267 104.242 28.8174 104.552 28.9437C104.861 29.07 105.195 29.129 105.529 29.1167C105.968 29.1578 106.409 29.0561 106.785 28.8267C107.162 28.5972 107.455 28.2523 107.62 27.8433L109.384 27.8433ZM103.102 25.1411H107.628C107.645 24.8415 107.6 24.5417 107.495 24.2605C107.39 23.9793 107.229 23.7227 107.02 23.507C106.812 23.2912 106.561 23.1209 106.283 23.0067C106.006 22.8924 105.708 22.8368 105.408 22.8433C105.105 22.8415 104.805 22.8996 104.525 23.0143C104.245 23.1291 103.99 23.2982 103.776 23.5118C103.562 23.7254 103.392 23.9794 103.276 24.259C103.16 24.5387 103.101 24.8385 103.102 25.1411V25.1411Z" fill="white"/>
<path d="M37.8262 8.73724C38.2158 8.70928 38.6067 8.76814 38.9709 8.90957C39.335 9.05101 39.6632 9.27149 39.9317 9.55511C40.2003 9.83874 40.4026 10.1784 40.524 10.5497C40.6454 10.921 40.6829 11.3146 40.6338 11.7021C40.6338 13.6083 39.6035 14.7041 37.8262 14.7041H35.6709V8.73724H37.8262ZM36.5976 13.8602H37.7226C38.0011 13.8769 38.2797 13.8312 38.5382 13.7266C38.7967 13.622 39.0287 13.4611 39.2172 13.2555C39.4057 13.0499 39.546 12.8049 39.6278 12.5383C39.7097 12.2717 39.7311 11.9902 39.6904 11.7142C39.7281 11.4394 39.7046 11.1596 39.6215 10.895C39.5383 10.6303 39.3977 10.3873 39.2096 10.1834C39.0216 9.97944 38.7907 9.81963 38.5337 9.7154C38.2766 9.61116 37.9996 9.56508 37.7226 9.58045H36.5976V13.8602Z" fill="white"/>
<path d="M41.6805 12.4506C41.6521 12.1547 41.686 11.8561 41.7798 11.5741C41.8737 11.292 42.0254 11.0327 42.2254 10.8127C42.4253 10.5927 42.669 10.4169 42.9409 10.2967C43.2127 10.1764 43.5067 10.1143 43.804 10.1143C44.1013 10.1143 44.3952 10.1764 44.6671 10.2967C44.939 10.4169 45.1827 10.5927 45.3826 10.8127C45.5825 11.0327 45.7343 11.292 45.8281 11.5741C45.922 11.8561 45.9558 12.1547 45.9275 12.4506C45.9564 12.7469 45.9229 13.0458 45.8293 13.3284C45.7357 13.6109 45.5841 13.8707 45.3841 14.0911C45.1841 14.3115 44.9402 14.4877 44.6681 14.6082C44.3959 14.7287 44.1016 14.791 43.804 14.791C43.5064 14.791 43.212 14.7287 42.9399 14.6082C42.6678 14.4877 42.4239 14.3115 42.2239 14.0911C42.0239 13.8707 41.8722 13.6109 41.7786 13.3284C41.6851 13.0458 41.6516 12.7469 41.6805 12.4506ZM45.0135 12.4506C45.0135 11.4746 44.575 10.9038 43.8055 10.9038C43.033 10.9038 42.5985 11.4746 42.5985 12.4506C42.5985 13.4345 43.033 14.0009 43.8055 14.0009C44.575 14.0009 45.0135 13.4306 45.0135 12.4506H45.0135Z" fill="white"/>
<path d="M51.5732 14.7041H50.6514L49.7207 11.3877H49.6504L48.7236 14.7041H47.8105L46.5693 10.2012H47.4707L48.2773 13.6372H48.3438L49.2695 10.2012H50.1221L51.0479 13.6372H51.1182L51.9209 10.2012H52.8096L51.5732 14.7041Z" fill="white"/>
<path d="M53.8535 10.2012H54.709V10.9165H54.7754C54.888 10.6596 55.0781 10.4443 55.3189 10.3004C55.5598 10.1566 55.8395 10.0916 56.1191 10.1143C56.3382 10.0978 56.5582 10.1309 56.7628 10.211C56.9674 10.2911 57.1514 10.4162 57.3011 10.577C57.4508 10.7378 57.5623 10.9303 57.6275 11.1401C57.6927 11.3499 57.7099 11.5717 57.6777 11.7891V14.7041H56.7891V12.0123C56.7891 11.2886 56.4746 10.9288 55.8174 10.9288C55.6686 10.9218 55.5201 10.9471 55.3821 11.003C55.244 11.0588 55.1197 11.1438 55.0175 11.2522C54.9154 11.3606 54.8379 11.4898 54.7904 11.6309C54.7429 11.772 54.7264 11.9218 54.7422 12.0699V14.7041H53.8535L53.8535 10.2012Z" fill="white"/>
<path d="M59.0938 8.44336H59.9824V14.7041H59.0938V8.44336Z" fill="white"/>
<path d="M61.2175 12.4507C61.1893 12.1548 61.2231 11.8562 61.317 11.5741C61.4109 11.292 61.5626 11.0327 61.7626 10.8127C61.9626 10.5927 62.2063 10.4169 62.4782 10.2967C62.75 10.1764 63.044 10.1143 63.3413 10.1143C63.6386 10.1143 63.9326 10.1764 64.2045 10.2967C64.4764 10.4169 64.7201 10.5927 64.92 10.8127C65.12 11.0327 65.2718 11.292 65.3656 11.5741C65.4595 11.8562 65.4934 12.1548 65.4651 12.4507C65.4939 12.747 65.4604 13.0459 65.3668 13.3285C65.2732 13.611 65.1215 13.8708 64.9215 14.0912C64.7215 14.3116 64.4776 14.4877 64.2054 14.6083C63.9333 14.7288 63.639 14.7911 63.3413 14.7911C63.0437 14.7911 62.7493 14.7288 62.4772 14.6083C62.2051 14.4877 61.9612 14.3116 61.7612 14.0912C61.5611 13.8708 61.4095 13.611 61.3158 13.3285C61.2222 13.0459 61.1887 12.747 61.2175 12.4507ZM64.5505 12.4507C64.5505 11.4746 64.1121 10.9039 63.3425 10.9039C62.5701 10.9039 62.1355 11.4747 62.1355 12.4507C62.1355 13.4346 62.5701 14.001 63.3425 14.001C64.1121 14.001 64.5505 13.4307 64.5505 12.4507H64.5505Z" fill="white"/>
<path d="M66.4009 13.4307C66.4009 12.6201 67.0044 12.1528 68.0757 12.0864L69.2954 12.0161V11.6274C69.2954 11.1518 68.981 10.8833 68.3735 10.8833C67.8774 10.8833 67.5337 11.0654 67.4351 11.3838H66.5747C66.6655 10.6103 67.3931 10.1143 68.4146 10.1143C69.5435 10.1143 70.1802 10.6763 70.1802 11.6274V14.7041H69.3247V14.0713H69.2544C69.1117 14.2983 68.9113 14.4833 68.6737 14.6075C68.436 14.7318 68.1697 14.7907 67.9019 14.7783C67.7128 14.798 67.5218 14.7778 67.341 14.7191C67.1602 14.6604 66.9938 14.5645 66.8524 14.4375C66.711 14.3105 66.5977 14.1553 66.52 13.9819C66.4422 13.8085 66.4016 13.6207 66.4009 13.4307ZM69.2954 13.0459V12.6694L68.1958 12.7397C67.5757 12.7812 67.2944 12.9922 67.2944 13.3891C67.2944 13.7944 67.646 14.0303 68.1294 14.0303C68.2711 14.0446 68.4142 14.0303 68.5502 13.9882C68.6862 13.9461 68.8123 13.8771 68.9211 13.7853C69.0299 13.6934 69.1191 13.5806 69.1834 13.4536C69.2477 13.3266 69.2858 13.1879 69.2954 13.0459Z" fill="white"/>
<path d="M71.3481 12.4507C71.3481 11.0278 72.0796 10.1265 73.2173 10.1265C73.4987 10.1135 73.778 10.1809 74.0225 10.3208C74.267 10.4607 74.4667 10.6673 74.5981 10.9165H74.6646V8.44336H75.5532V14.7041H74.7017V13.9927H74.6314C74.4897 14.2402 74.2831 14.4442 74.0339 14.5827C73.7846 14.7212 73.5022 14.7888 73.2173 14.7783C72.0718 14.7784 71.3481 13.877 71.3481 12.4507ZM72.2661 12.4507C72.2661 13.4058 72.7163 13.9805 73.4693 13.9805C74.2183 13.9805 74.6812 13.3975 74.6812 12.4546C74.6812 11.5161 74.2134 10.9248 73.4693 10.9248C72.7212 10.9248 72.2661 11.5034 72.2661 12.4507H72.2661Z" fill="white"/>
<path d="M79.2298 12.4506C79.2015 12.1547 79.2353 11.8561 79.3292 11.5741C79.423 11.292 79.5748 11.0327 79.7747 10.8127C79.9746 10.5927 80.2183 10.4169 80.4902 10.2967C80.762 10.1764 81.056 10.1143 81.3533 10.1143C81.6506 10.1143 81.9446 10.1764 82.2164 10.2967C82.4883 10.4169 82.732 10.5927 82.9319 10.8127C83.1319 11.0327 83.2836 11.292 83.3775 11.5741C83.4713 11.8561 83.5052 12.1547 83.4768 12.4506C83.5057 12.7469 83.4722 13.0458 83.3786 13.3284C83.2851 13.6109 83.1334 13.8707 82.9334 14.0911C82.7334 14.3115 82.4895 14.4877 82.2174 14.6082C81.9453 14.7287 81.6509 14.791 81.3533 14.791C81.0557 14.791 80.7613 14.7287 80.4892 14.6082C80.2171 14.4877 79.9732 14.3115 79.7732 14.0911C79.5732 13.8707 79.4216 13.6109 79.328 13.3284C79.2344 13.0458 79.2009 12.7469 79.2298 12.4506ZM82.5628 12.4506C82.5628 11.4746 82.1243 10.9038 81.3548 10.9038C80.5823 10.9038 80.1478 11.4746 80.1478 12.4506C80.1478 13.4345 80.5823 14.0009 81.3548 14.0009C82.1243 14.0009 82.5628 13.4306 82.5628 12.4506Z" fill="white"/>
<path d="M84.6694 10.2012H85.5249V10.9165H85.5913C85.704 10.6596 85.894 10.4443 86.1348 10.3004C86.3757 10.1566 86.6555 10.0916 86.9351 10.1143C87.1542 10.0978 87.3742 10.1309 87.5788 10.211C87.7834 10.2911 87.9673 10.4162 88.117 10.577C88.2667 10.7378 88.3783 10.9303 88.4435 11.1401C88.5087 11.3499 88.5258 11.5717 88.4937 11.7891V14.7041H87.605V12.0123C87.605 11.2886 87.2905 10.9288 86.6333 10.9288C86.4846 10.9218 86.336 10.9471 86.198 11.003C86.0599 11.0588 85.9356 11.1438 85.8335 11.2522C85.7313 11.3606 85.6539 11.4898 85.6063 11.6309C85.5588 11.772 85.5423 11.9218 85.5581 12.0699V14.7041H84.6694V10.2012Z" fill="white"/>
<path d="M93.5151 9.08008V10.2217H94.4907V10.9702H93.5151V13.2856C93.5151 13.7573 93.7095 13.9639 94.1519 13.9639C94.2651 13.9635 94.3783 13.9567 94.4907 13.9434V14.6836C94.3311 14.7121 94.1694 14.7273 94.0073 14.729C93.019 14.729 92.6255 14.3813 92.6255 13.5132V10.9702H91.9106V10.2216H92.6255V9.08008H93.5151Z" fill="white"/>
<path d="M95.7046 8.44336H96.5854V10.9248H96.6558C96.7739 10.6655 96.9691 10.4489 97.2148 10.3046C97.4605 10.1602 97.7447 10.0951 98.0288 10.1182C98.2467 10.1063 98.4646 10.1427 98.6669 10.2247C98.8692 10.3068 99.0508 10.4325 99.199 10.5928C99.3471 10.7531 99.458 10.9442 99.5238 11.1523C99.5896 11.3605 99.6086 11.5805 99.5795 11.7969V14.7041H98.69V12.0161C98.69 11.2969 98.355 10.9326 97.7271 10.9326C97.5743 10.9201 97.4207 10.9411 97.2769 10.9941C97.1332 11.0472 97.0027 11.131 96.8947 11.2398C96.7867 11.3485 96.7038 11.4795 96.6517 11.6236C96.5997 11.7678 96.5797 11.9216 96.5933 12.0742V14.7041H95.7046L95.7046 8.44336Z" fill="white"/>
<path d="M104.761 13.4884C104.641 13.8999 104.379 14.2559 104.022 14.494C103.666 14.7322 103.237 14.8373 102.81 14.7911C102.514 14.7989 102.219 14.7421 101.946 14.6246C101.674 14.507 101.43 14.3316 101.232 14.1105C101.034 13.8893 100.887 13.6278 100.8 13.344C100.713 13.0601 100.69 12.7609 100.73 12.4669C100.691 12.172 100.715 11.8721 100.801 11.5874C100.888 11.3027 101.035 11.0399 101.231 10.8169C101.428 10.5938 101.671 10.4156 101.943 10.2944C102.214 10.1732 102.509 10.1118 102.806 10.1143C104.059 10.1143 104.815 10.9703 104.815 12.3843V12.6944H101.635V12.7442C101.621 12.9095 101.642 13.0758 101.696 13.2325C101.751 13.3893 101.837 13.533 101.95 13.6545C102.063 13.7759 102.2 13.8724 102.352 13.9378C102.504 14.0032 102.669 14.0361 102.835 14.0342C103.047 14.0597 103.263 14.0215 103.453 13.9243C103.644 13.8271 103.802 13.6753 103.906 13.4883L104.761 13.4884ZM101.635 12.0372H103.91C103.921 11.8861 103.9 11.7343 103.85 11.5915C103.799 11.4488 103.718 11.3183 103.614 11.2085C103.51 11.0986 103.383 11.0118 103.243 10.9536C103.103 10.8955 102.953 10.8672 102.801 10.8707C102.648 10.8688 102.495 10.8976 102.353 10.9556C102.21 11.0135 102.081 11.0994 101.972 11.2081C101.864 11.3168 101.778 11.4462 101.72 11.5885C101.662 11.7309 101.633 11.8835 101.635 12.0372H101.635Z" fill="white"/>
</svg>
