<svg width="50" height="50" viewBox="0 0 50 50" fill="none" xmlns="http://www.w3.org/2000/svg">
<path d="M29.2678 19.2678C30.2441 18.2915 30.2441 16.7085 29.2678 15.7322C28.2915 14.7559 26.7085 14.7559 25.7322 15.7322L18.2322 23.2322C17.2559 24.2085 17.2559 25.7915 18.2322 26.7678L25.7322 34.2678C26.7085 35.2441 28.2915 35.2441 29.2678 34.2678C30.2441 33.2915 30.2441 31.7085 29.2678 30.7322L23.5355 25L29.2678 19.2678Z" fill="white"/>
<path fill-rule="evenodd" clip-rule="evenodd" d="M25 0C11.1929 0 0 11.1929 0 25C0 38.8071 11.1929 50 25 50C38.8071 50 50 38.8071 50 25C50 11.1929 38.8071 0 25 0ZM5 25C5 13.9543 13.9543 5 25 5C36.0457 5 45 13.9543 45 25C45 36.0457 36.0457 45 25 45C13.9543 45 5 36.0457 5 25Z" fill="white"/>
</svg>
