<svg width="37" height="35" viewBox="0 0 37 35" fill="none" xmlns="http://www.w3.org/2000/svg">
<rect x="0.5" y="0.5" width="36" height="34" rx="4.5" stroke="#1B49FF"/>
<path fill-rule="evenodd" clip-rule="evenodd" d="M10 11.2143C10 9.43908 11.4391 8 13.2143 8H13.5833C15.0485 8 16.3662 8.89207 16.9103 10.2525L17.5839 11.9365C17.9917 12.9559 17.7527 14.1201 16.9764 14.8964L16.7903 15.0824C16.614 15.2588 16.5703 15.5281 16.6818 15.7512C17.4536 17.2948 18.7052 18.5464 20.2488 19.3182C20.4719 19.4297 20.7412 19.386 20.9176 19.2097L21.1036 19.0236C21.8799 18.2473 23.0441 18.0083 24.0635 18.4161L25.7475 19.0897C27.1079 19.6338 28 20.9515 28 22.4167V22.7857C28 24.5609 26.5609 26 24.7857 26C16.6198 26 10 19.3802 10 11.2143Z" fill="#1B49FF"/>
</svg>
