<svg width="24" height="24" viewBox="0 0 24 24" fill="none" xmlns="http://www.w3.org/2000/svg">
<path d="M2.2078 8.57573L2.47614 8.48803L2.51395 8.20826L2.53395 8.06026L2.6029 7.55H2.088H1C0.854131 7.55 0.714237 7.49205 0.611091 7.38891C0.507946 7.28576 0.45 7.14587 0.45 7C0.45 6.85413 0.507946 6.71424 0.611091 6.61109C0.714237 6.50795 0.854131 6.45 1 6.45H2.346H2.74169L2.7923 6.05757L3.1163 3.5456C3.1163 3.54559 3.1163 3.54558 3.1163 3.54557C3.22681 2.68942 3.64548 1.90287 4.29399 1.3331C4.9425 0.763324 5.77641 0.449374 6.63967 0.450001H6.64H17.36C18.2238 0.449972 19.0579 0.764864 19.7062 1.33569C20.3544 1.90645 20.7723 2.69393 20.8816 3.55065L20.8816 3.55093L21.1996 6.05665L21.2495 6.45H21.646H23C23.1459 6.45 23.2858 6.50795 23.3889 6.61109C23.4921 6.71424 23.55 6.85413 23.55 7C23.55 7.14587 23.4921 7.28577 23.3889 7.38891C23.2858 7.49205 23.1459 7.55 23 7.55H21.902H21.3852L21.4563 8.06191L21.4763 8.20591L21.5151 8.48548L21.7837 8.57222C22.297 8.73801 22.7446 9.06233 23.062 9.49854C23.3793 9.93475 23.5502 10.4604 23.55 10.9998V11V17C23.55 17.6763 23.2813 18.3249 22.8031 18.8031C22.3249 19.2813 21.6763 19.55 21 19.55H20.994H20.544V20V22.5C20.544 22.7785 20.4334 23.0455 20.2365 23.2425C20.0395 23.4394 19.7725 23.55 19.494 23.55C19.2155 23.55 18.9485 23.4394 18.7515 23.2425C18.5546 23.0455 18.444 22.7785 18.444 22.5V20V19.55H17.994H6H5.55V20V22.5C5.55 22.7785 5.43938 23.0455 5.24246 23.2425C5.04555 23.4394 4.77848 23.55 4.5 23.55C4.22152 23.55 3.95445 23.4394 3.75754 23.2425C3.56062 23.0455 3.45 22.7785 3.45 22.5V20V19.55H3C2.3237 19.55 1.6751 19.2813 1.19688 18.8031C0.71866 18.3249 0.45 17.6763 0.45 17V11V10.9999C0.449921 10.4621 0.619886 9.93805 0.935597 9.50265C1.25131 9.06725 1.6966 8.74282 2.2078 8.57573ZM4.29347 3.294H4.25841L4.20771 3.68633L3.65771 7.94233L3.5921 8.45H4.104H19.886H20.3972L20.3324 7.94292L19.7884 3.68892L19.7884 3.68885C19.7127 3.09816 19.4245 2.55524 18.9777 2.1616C18.5308 1.76795 17.9559 1.55054 17.3604 1.55H17.36L6.6401 1.55C6.64007 1.55 6.64003 1.55 6.64 1.55C6.04448 1.54989 5.4693 1.76669 5.02201 2.15987C4.67592 2.4641 4.42473 2.85781 4.29347 3.294ZM7.55 14C7.55 14.1376 7.52289 14.2739 7.47023 14.4011C7.41756 14.5282 7.34036 14.6437 7.24305 14.741C7.14573 14.8384 7.0302 14.9156 6.90305 14.9682C6.77591 15.0209 6.63963 15.048 6.502 15.048C6.36437 15.048 6.2281 15.0209 6.10095 14.9682C5.9738 14.9156 5.85827 14.8384 5.76095 14.741C5.66364 14.6437 5.58644 14.5282 5.53377 14.4011C5.48111 14.2739 5.454 14.1376 5.454 14C5.454 13.7221 5.56441 13.4555 5.76095 13.259C5.95749 13.0624 6.22405 12.952 6.502 12.952C6.77995 12.952 7.04651 13.0624 7.24305 13.259C7.43959 13.4555 7.55 13.7221 7.55 14ZM17.8991 14.9682C17.7719 15.0209 17.6356 15.048 17.498 15.048C17.2201 15.048 16.9535 14.9376 16.757 14.741C16.5604 14.5445 16.45 14.2779 16.45 14C16.45 13.7221 16.5604 13.4555 16.757 13.259C16.9535 13.0624 17.2201 12.952 17.498 12.952C17.6356 12.952 17.7719 12.9791 17.8991 13.0318C18.0262 13.0844 18.1417 13.1616 18.239 13.259C18.3364 13.3563 18.4136 13.4718 18.4662 13.5989C18.5189 13.7261 18.546 13.8624 18.546 14C18.546 14.1376 18.5189 14.2739 18.4662 14.4011C18.4136 14.5282 18.3364 14.6437 18.239 14.741C18.1417 14.8384 18.0262 14.9156 17.8991 14.9682ZM21 18.45C21.3846 18.45 21.7534 18.2972 22.0253 18.0253C22.2972 17.7534 22.45 17.3846 22.45 17V11C22.45 10.6154 22.2972 10.2466 22.0253 9.9747C21.7534 9.70277 21.3846 9.55 21 9.55H3C2.61544 9.55 2.24662 9.70277 1.9747 9.9747C1.70277 10.2466 1.55 10.6154 1.55 11V17C1.55 17.3846 1.70277 17.7534 1.9747 18.0253C2.24662 18.2972 2.61544 18.45 3 18.45H21Z" stroke="#0A1045" stroke-width="0.9"/>
</svg>
