<svg width="24" height="24" viewBox="0 0 24 24" fill="none" xmlns="http://www.w3.org/2000/svg">
<path d="M11.1429 0H12.8571V4.28571H11.1429V0ZM16.8754 5.91429L19.8806 2.90914L21.0926 4.12114L18.0874 7.12629L16.8754 5.91429ZM19.7143 11.1429H24V12.8571H19.7143V11.1429ZM16.8754 18.0857L18.0874 16.8746L21.0926 19.8797L19.8806 21.0917L16.8754 18.0857ZM11.1429 19.7143H12.8571V24H11.1429V19.7143ZM2.90914 19.8789L5.91429 16.8737L7.12629 18.0857L4.122 21.0909L2.90914 19.8789ZM0 11.1429H4.28571V12.8571H0V11.1429ZM2.91 4.12114L4.122 2.90914L7.12714 5.91429L5.91429 7.12629L2.91 4.12114ZM12 8.57143C12.6781 8.57143 13.341 8.77251 13.9048 9.14925C14.4686 9.52598 14.9081 10.0615 15.1676 10.6879C15.4271 11.3144 15.495 12.0038 15.3627 12.6689C15.2304 13.334 14.9039 13.9449 14.4244 14.4244C13.9449 14.9039 13.334 15.2304 12.6689 15.3627C12.0038 15.495 11.3144 15.4271 10.6879 15.1676C10.0615 14.9081 9.52598 14.4686 9.14925 13.9048C8.77251 13.341 8.57143 12.6781 8.57143 12C8.57256 11.091 8.93415 10.2196 9.57689 9.57689C10.2196 8.93415 11.091 8.57256 12 8.57143ZM12 6.85714C10.9828 6.85714 9.98852 7.15877 9.14278 7.72387C8.29704 8.28898 7.63787 9.09218 7.24862 10.0319C6.85937 10.9716 6.75752 12.0057 6.95596 13.0033C7.1544 14.0009 7.64421 14.9173 8.36345 15.6365C9.08269 16.3558 9.99906 16.8456 10.9967 17.044C11.9943 17.2425 13.0284 17.1406 13.9681 16.7514C14.9078 16.3621 15.711 15.703 16.2761 14.8572C16.8412 14.0115 17.1429 13.0172 17.1429 12C17.1429 10.636 16.601 9.32792 15.6365 8.36345C14.6721 7.39898 13.364 6.85714 12 6.85714Z" fill="#0A1045"/>
</svg>
