<svg width="30" height="30" viewBox="0 0 30 30" fill="none" xmlns="http://www.w3.org/2000/svg">
<circle cx="15" cy="15" r="15" fill="#EFF1FA"/>
<path d="M9.93478 17.0701L15.587 11.4722C15.587 11.4722 18.9565 14.2983 19.1196 14.4614C19.2826 14.6244 20.4729 14.6788 20.75 14.4614C21.0271 14.244 22 13.7005 22 13.7005C22 13.7005 16.837 9.24397 16.1848 8.42875C15.5326 7.61353 14.5 8.21136 14.5 8.21136L7 15.6027V22.1244L7.70652 22.6679H9.44565L9.93478 22.1244V17.0701Z" fill="#1B49FF"/>
<rect x="13.4131" y="17.4512" width="1.63043" height="1.73913" rx="0.815217" fill="#1B49FF"/>
<rect x="13.4131" y="19.8428" width="1.63043" height="1.73913" rx="0.815217" fill="#1B49FF"/>
<rect x="16.1304" y="17.4512" width="1.63043" height="1.73913" rx="0.815217" fill="#1B49FF"/>
<rect x="16.1304" y="19.8428" width="1.63043" height="1.73913" rx="0.815217" fill="#1B49FF"/>
</svg>
