<svg width="18" height="16" viewBox="0 0 18 16" fill="none" xmlns="http://www.w3.org/2000/svg">
<path d="M0 1.125C0 0.50368 0.50368 0 1.125 0H16.875C17.4963 0 18 0.50368 18 1.125C18 1.74632 17.4963 2.25 16.875 2.25H1.125C0.50368 2.25 0 1.74632 0 1.125Z" fill="#0A1045"/>
<path d="M6.75 7.875C6.75 7.25368 7.25368 6.75 7.875 6.75H16.875C17.4963 6.75 18 7.25368 18 7.875C18 8.49632 17.4963 9 16.875 9H7.875C7.25368 9 6.75 8.49632 6.75 7.875Z" fill="#0A1045"/>
<path d="M1.125 13.5C0.50368 13.5 0 14.0037 0 14.625C0 15.2463 0.50368 15.75 1.125 15.75H16.875C17.4963 15.75 18 15.2463 18 14.625C18 14.0037 17.4963 13.5 16.875 13.5H1.125Z" fill="#0A1045"/>
</svg>
