<svg width="50" height="50" viewBox="0 0 50 50" fill="none" xmlns="http://www.w3.org/2000/svg">
<path d="M20.7322 30.7322C19.7559 31.7085 19.7559 33.2915 20.7322 34.2678C21.7085 35.2441 23.2915 35.2441 24.2678 34.2678L31.7678 26.7678C32.7441 25.7915 32.7441 24.2085 31.7678 23.2322L24.2678 15.7322C23.2915 14.7559 21.7085 14.7559 20.7322 15.7322C19.7559 16.7085 19.7559 18.2915 20.7322 19.2678L26.4645 25L20.7322 30.7322Z" fill="white"/>
<path fill-rule="evenodd" clip-rule="evenodd" d="M25 50C38.8071 50 50 38.8071 50 25C50 11.1929 38.8071 0 25 0C11.1929 0 0 11.1929 0 25C0 38.8071 11.1929 50 25 50ZM45 25C45 36.0457 36.0457 45 25 45C13.9543 45 5 36.0457 5 25C5 13.9543 13.9543 5 25 5C36.0457 5 45 13.9543 45 25Z" fill="white"/>
</svg>
