<svg width="114" height="85" viewBox="0 0 114 85" fill="none" xmlns="http://www.w3.org/2000/svg">
<path d="M80.3971 44.8869C80.3971 39.9356 77.4221 36.826 73.3067 36.826C69.17 36.826 66.5492 39.971 66.5492 45.6023V48.811C66.5492 54.4777 69.1983 57.651 73.4342 57.651C77.5992 57.651 80.4042 54.5344 80.4042 49.151V44.8869H80.3971ZM42.055 46.5656L36.8558 29.3814H36.4804L31.2812 46.5656H42.0479H42.055Z" fill="#D9DDEE"/>
<path d="M14.1667 0C10.4094 0 6.80609 1.49255 4.14932 4.14932C1.49256 6.80609 0 10.4094 0 14.1667L0 70.8333C0 74.5906 1.49256 78.1939 4.14932 80.8507C6.80609 83.5074 10.4094 85 14.1667 85H99.1667C102.924 85 106.527 83.5074 109.184 80.8507C111.841 78.1939 113.333 74.5906 113.333 70.8333V14.1667C113.333 10.4094 111.841 6.80609 109.184 4.14932C106.527 1.49255 102.924 0 99.1667 0H14.1667ZM58.1471 44.7667C58.1471 35.7 63.0629 30.2883 70.5642 30.2883C75.2038 30.2883 78.7525 32.3708 80.0275 35.7354H80.4029V19.0187H88.6196V63.75H80.5588V58.4588H80.155C79.1279 61.8163 75.2675 64.1538 70.4721 64.1538C62.9992 64.1538 58.1471 58.7421 58.1471 49.6825V44.7596V44.7667ZM29.5304 52.8275L26.2083 63.75H17.7083L31.9671 21.2571H41.7917L55.9938 63.75H47.0617L43.7325 52.8275H29.5375H29.5304Z" fill="#D9DDEE"/>
</svg>
