<svg width="20" height="20" viewBox="0 0 20 20" fill="none" xmlns="http://www.w3.org/2000/svg">
<path fill-rule="evenodd" clip-rule="evenodd" d="M0 3.57143C0 1.59898 1.59898 0 3.57143 0H3.98146C5.60949 0 7.07351 0.991187 7.67814 2.50278L8.4266 4.37392C8.87964 5.50651 8.61412 6.8001 7.75157 7.66265L7.54483 7.86938C7.34891 8.0653 7.30034 8.36461 7.42425 8.61243C8.28179 10.3275 9.67248 11.7182 11.3876 12.5758C11.6354 12.6997 11.9347 12.6511 12.1306 12.4552L12.3374 12.2484C13.1999 11.3859 14.4935 11.1204 15.6261 11.5734L17.4972 12.3219C19.0088 12.9265 20 14.3905 20 16.0185V16.4286C20 18.401 18.401 20 16.4286 20C7.35532 20 0 12.6447 0 3.57143Z" fill="#1B49FF"/>
</svg>
