<svg width="18" height="20" viewBox="0 0 18 20" fill="none" xmlns="http://www.w3.org/2000/svg">
<path d="M0 1.18961V18.1945C0.000113924 18.2314 0.0111176 18.2674 0.0316313 18.2981C0.0521449 18.3288 0.0812554 18.3527 0.115312 18.3669C0.149369 18.3811 0.186856 18.3849 0.223073 18.3779C0.25929 18.3708 0.292624 18.3533 0.318896 18.3274L9.17313 9.69249L0.318896 1.05677C0.292624 1.03087 0.25929 1.0133 0.223073 1.00627C0.186856 0.999232 0.149369 1.00305 0.115312 1.01723C0.0812554 1.03142 0.0521449 1.05535 0.0316313 1.08601C0.0111176 1.11668 0.000113924 1.15271 0 1.18961ZM12.8857 6.1444L1.78357 0.0278215L1.77665 0.0239272C1.58539 -0.0799196 1.40366 0.178832 1.5603 0.32941L10.2631 8.651L12.8857 6.1444ZM1.56116 19.0556C1.40366 19.2062 1.58539 19.4649 1.77751 19.3611L1.78443 19.3572L12.8857 13.2406L10.2631 10.7331L1.56116 19.0556ZM17.3675 8.61076L14.2673 6.90334L11.3522 9.69249L14.2673 12.4803L17.3675 10.7742C18.2108 10.3082 18.2108 9.07677 17.3675 8.61076Z" fill="#4E527B"/>
</svg>
