<svg width="23" height="23" viewBox="0 0 23 23" fill="none" xmlns="http://www.w3.org/2000/svg">
<path d="M6.27597 13.9659L6.03465 13.7834L5.79334 13.9659L5.52376 14.1698V2.875C5.52376 1.49337 6.59145 0.4 7.85644 0.4H8.36733V1.51667H7.85644C7.11564 1.51667 6.54554 2.14638 6.54554 2.875V14.1698L6.27597 13.9659ZM16.0545 4.23333H16.4545V3.83333V2.875C16.4545 1.49337 17.5221 0.4 18.7871 0.4H19.298V1.51667H18.7871C18.0463 1.51667 17.4762 2.14638 17.4762 2.875V14.1698L17.2067 13.9659L16.9653 13.7834L16.724 13.9659L16.4545 14.1698V13.4167V13.0167H16.0545H8.25644V11.9H16.0545H16.4545V11.5V9.58333V9.18333H16.0545H8.25644V8.06667H16.0545H16.4545V7.66667V5.75V5.35H16.0545H8.25644V4.23333H16.0545ZM6.60396 16.5015C6.35976 16.8183 6.35986 16.8184 6.35996 16.8185L6.36018 16.8187L6.3607 16.8191L6.36199 16.8201L6.36566 16.8228L6.37727 16.8315C6.38687 16.8386 6.40021 16.8483 6.41709 16.8603C6.45083 16.8841 6.49887 16.917 6.55978 16.9558C6.68137 17.0333 6.85558 17.1354 7.07091 17.2373C7.49822 17.4396 8.10617 17.65 8.79556 17.65C9.48607 17.65 10.0812 17.439 10.4971 17.2348C10.7064 17.1321 10.8743 17.0292 10.9913 16.9509C11.0498 16.9116 11.096 16.8784 11.1284 16.8541C11.1447 16.842 11.1575 16.8321 11.1668 16.8248L11.1781 16.8159L11.1818 16.8129L11.1831 16.8119L11.1836 16.8114L11.1838 16.8113C11.1839 16.8112 11.184 16.8111 10.9307 16.5015L11.1841 16.8111L11.1883 16.8076L11.5 16.5452L11.8117 16.8076L11.8183 16.8131L11.8251 16.8183L12.0693 16.5015C11.8251 16.8183 11.8252 16.8184 11.8253 16.8185L11.8255 16.8187L11.826 16.8191L11.8273 16.8201L11.831 16.8228L11.8426 16.8315C11.8522 16.8386 11.8656 16.8483 11.8824 16.8603C11.9162 16.8841 11.9642 16.917 12.0251 16.9558C12.1467 17.0333 12.3209 17.1354 12.5363 17.2373C12.9636 17.4396 13.5715 17.65 14.2609 17.65C14.9514 17.65 15.5466 17.439 15.9625 17.2348C16.1717 17.1321 16.3396 17.0292 16.4566 16.9509C16.5152 16.9116 16.5613 16.8784 16.5938 16.8541C16.61 16.842 16.6229 16.8321 16.6322 16.8248L16.6435 16.8159L16.6471 16.8129L16.6484 16.8119L16.6489 16.8114L16.6492 16.8113C16.6493 16.8112 16.6494 16.8111 16.396 16.5015L16.6494 16.8111L16.6536 16.8076L16.9653 16.5452L17.2771 16.8076L17.2837 16.8131L17.2905 16.8183L17.5347 16.5015C17.2905 16.8183 17.2906 16.8184 17.2907 16.8185L17.2909 16.8187L17.2914 16.8191L17.2927 16.8201L17.2964 16.8228L17.308 16.8315C17.3176 16.8386 17.3309 16.8483 17.3478 16.8603C17.3815 16.8841 17.4296 16.917 17.4905 16.9558C17.6121 17.0333 17.7863 17.1354 18.0016 17.2373C18.4289 17.4396 19.0369 17.65 19.7263 17.65C20.4168 17.65 21.0119 17.439 21.4278 17.2348C21.5602 17.1699 21.676 17.1048 21.7729 17.0459L22.4358 17.9174C22.2993 18.008 22.1202 18.1167 21.9048 18.2256C21.3646 18.4987 20.6086 18.7667 19.7263 18.7667C18.4878 18.7667 17.673 18.3376 17.1818 18.0215L16.9636 17.881L16.7464 18.0231C16.2564 18.3436 15.4864 18.7667 14.2609 18.7667C13.0225 18.7667 12.2076 18.3376 11.7165 18.0215L11.4982 17.881L11.281 18.0231C10.791 18.3436 10.021 18.7667 8.79556 18.7667C7.55713 18.7667 6.7423 18.3376 6.25112 18.0215L6.03287 17.881L5.81568 18.0231C5.32567 18.3436 4.55569 18.7667 3.33022 18.7667C2.44768 18.7667 1.67659 18.4983 1.12032 18.2238C0.896857 18.1136 0.710454 18.0035 0.568304 17.912L1.23177 17.0398C1.33563 17.1007 1.46138 17.1691 1.60557 17.2373C2.03288 17.4396 2.64083 17.65 3.33022 17.65C4.02072 17.65 4.6159 17.439 5.03176 17.2348C5.241 17.1321 5.40895 17.0292 5.52591 16.9509C5.5845 16.9116 5.63063 16.8784 5.66309 16.8541C5.67933 16.842 5.69218 16.8321 5.70148 16.8248L5.71278 16.8159L5.71641 16.8129L5.71772 16.8119L5.71824 16.8114L5.71847 16.8113C5.71858 16.8112 5.71868 16.8111 5.46535 16.5015L5.71871 16.8111L5.72292 16.8076L6.03465 16.5452L6.34639 16.8076L6.35296 16.8131L6.35976 16.8183L6.60396 16.5015ZM6.60396 20.3349C6.35976 20.6517 6.35986 20.6518 6.35996 20.6518L6.36018 20.652L6.3607 20.6524L6.36199 20.6534L6.36566 20.6562L6.37727 20.6648C6.38687 20.672 6.40021 20.6817 6.41709 20.6936C6.45083 20.7175 6.49887 20.7503 6.55978 20.7891C6.68137 20.8666 6.85558 20.9687 7.07091 21.0707C7.49822 21.2729 8.10617 21.4833 8.79556 21.4833C9.48607 21.4833 10.0812 21.2723 10.4971 21.0682C10.7064 20.9655 10.8743 20.8625 10.9913 20.7842C11.0498 20.745 11.096 20.7117 11.1284 20.6875C11.1341 20.6832 11.1394 20.6792 11.1443 20.6755C11.1533 20.6687 11.1608 20.6629 11.1668 20.6581L11.1781 20.6492L11.1818 20.6463L11.1831 20.6452L11.1836 20.6448L11.1838 20.6446C11.1839 20.6445 11.184 20.6444 10.9307 20.3349L11.1841 20.6445L11.1883 20.6409L11.5 20.3785L11.8117 20.6409L11.8183 20.6464L11.8251 20.6517L12.0693 20.3349C11.8251 20.6517 11.8252 20.6518 11.8253 20.6518L11.8255 20.652L11.826 20.6524L11.8273 20.6534L11.831 20.6562L11.8426 20.6648C11.8522 20.672 11.8656 20.6817 11.8824 20.6936C11.9162 20.7175 11.9642 20.7503 12.0251 20.7891C12.1467 20.8666 12.3209 20.9687 12.5363 21.0707C12.9636 21.2729 13.5715 21.4833 14.2609 21.4833C14.9514 21.4833 15.5466 21.2723 15.9625 21.0682C16.1717 20.9655 16.3396 20.8625 16.4566 20.7842C16.5152 20.745 16.5613 20.7117 16.5938 20.6875C16.61 20.6753 16.6229 20.6654 16.6322 20.6581L16.6435 20.6492L16.6471 20.6463L16.6484 20.6452L16.6489 20.6448L16.6492 20.6446C16.6493 20.6445 16.6494 20.6444 16.396 20.3349L16.6494 20.6445L16.6536 20.6409L16.9653 20.3785L17.2771 20.6409L17.2837 20.6464L17.2905 20.6517L17.5347 20.3349C17.2905 20.6517 17.2906 20.6518 17.2907 20.6518L17.2909 20.652L17.2914 20.6524L17.2927 20.6534L17.2964 20.6562L17.308 20.6648C17.3113 20.6673 17.3151 20.6701 17.3193 20.6732C17.3272 20.679 17.3368 20.6858 17.3478 20.6936C17.3815 20.7175 17.4296 20.7503 17.4905 20.7891C17.6121 20.8666 17.7863 20.9687 18.0016 21.0707C18.4289 21.2729 19.0369 21.4833 19.7263 21.4833C20.4168 21.4833 21.0119 21.2723 21.4278 21.0682C21.5602 21.0032 21.676 20.9381 21.7729 20.8792L22.4358 21.7507C22.2993 21.8413 22.1202 21.95 21.9048 22.0589C21.3646 22.332 20.6086 22.6 19.7263 22.6C18.4878 22.6 17.673 22.1709 17.1818 21.8548L16.9636 21.7143L16.7464 21.8564C16.2564 22.177 15.4864 22.6 14.2609 22.6C13.0225 22.6 12.2076 22.1709 11.7165 21.8548L11.4982 21.7143L11.281 21.8564C10.791 22.177 10.021 22.6 8.79556 22.6C7.55713 22.6 6.7423 22.1709 6.25112 21.8548L6.03287 21.7143L5.81568 21.8564C5.32567 22.177 4.55569 22.6 3.33022 22.6C2.44768 22.6 1.67659 22.3316 1.12032 22.0572C0.896857 21.9469 0.710454 21.8369 0.568303 21.7454L1.23177 20.8731C1.33563 20.9341 1.46138 21.0024 1.60557 21.0707C2.03288 21.2729 2.64083 21.4833 3.33022 21.4833C4.02072 21.4833 4.6159 21.2723 5.03176 21.0682C5.241 20.9655 5.40895 20.8625 5.52591 20.7842C5.5845 20.745 5.63063 20.7117 5.66309 20.6875C5.67933 20.6753 5.69218 20.6654 5.70148 20.6581L5.71278 20.6492L5.71641 20.6463L5.71772 20.6452L5.71824 20.6448L5.71847 20.6446C5.71858 20.6445 5.71868 20.6444 5.46535 20.3349L5.71871 20.6445L5.72292 20.6409L6.03465 20.3785L6.34639 20.6409L6.35296 20.6464L6.35976 20.6517L6.60396 20.3349Z" stroke="#0A1045" stroke-width="0.8"/>
</svg>
