<svg width="21" height="21" viewBox="0 0 21 21" fill="none" xmlns="http://www.w3.org/2000/svg">
<path fill-rule="evenodd" clip-rule="evenodd" d="M20.6924 0.307568C20.9868 0.601981 21.0795 1.04254 20.9286 1.4306L13.5786 20.3306C13.4319 20.7078 13.0814 20.9671 12.6777 20.9971C12.2741 21.0271 11.8892 20.8224 11.6883 20.4709L7.63042 13.3696L0.529065 9.31167C0.17763 9.11085 -0.0270817 8.72591 0.00289504 8.32225C0.0328718 7.9186 0.292198 7.56812 0.669442 7.42141L19.5694 0.0714254C19.9575 -0.0794839 20.398 0.0131545 20.6924 0.307568ZM9.70954 12.7754L12.4193 17.5175L18.1064 2.89356L3.48247 8.58066L8.22462 11.2905L11.8575 7.65755C12.2676 7.2475 12.9324 7.2475 13.3424 7.65755C13.7525 8.0676 13.7525 8.73242 13.3424 9.14247L9.70954 12.7754Z" fill="#1B49FF"/>
</svg>
