<svg width="42" height="42" viewBox="0 0 42 42" fill="none" xmlns="http://www.w3.org/2000/svg">
<path d="M17 1C11.4772 1 7 5.47715 7 11C7 16.5228 11.4772 21 17 21C22.5228 21 27 16.5228 27 11C27 5.47715 22.5228 1 17 1Z" fill="#1B49FF"/>
<path d="M4.09091 41C2.38385 41 1 39.6162 1 37.9091C1 37.7733 1.0021 37.638 1.00626 37.5032C1.00211 37.4312 1 37.3587 1 37.2857C1 30.5005 6.5005 25 13.2857 25H16.0909C16.831 25 17.5565 25.0623 18.2625 25.1819C17.4518 26.9537 17 28.9241 17 31C17 34.9174 18.6089 38.459 21.202 41H4.09091Z" fill="#1B49FF"/>
<path fill-rule="evenodd" clip-rule="evenodd" d="M31 41C36.5228 41 41 36.5228 41 31C41 25.4772 36.5228 21 31 21C25.4772 21 21 25.4772 21 31C21 36.5228 25.4772 41 31 41ZM35 32.5C35.8284 32.5 36.5 31.8284 36.5 31C36.5 30.1716 35.8284 29.5 35 29.5H32.5V27C32.5 26.1716 31.8284 25.5 31 25.5C30.1716 25.5 29.5 26.1716 29.5 27V29.5H27C26.1716 29.5 25.5 30.1716 25.5 31C25.5 31.8284 26.1716 32.5 27 32.5H29.5V35C29.5 35.8284 30.1716 36.5 31 36.5C31.8284 36.5 32.5 35.8284 32.5 35V32.5H35Z" fill="#1B49FF"/>
<path d="M17 1C11.4772 1 7 5.47715 7 11C7 16.5228 11.4772 21 17 21C22.5228 21 27 16.5228 27 11C27 5.47715 22.5228 1 17 1Z" stroke="#0A1045"/>
<path d="M4.09091 41C2.38385 41 1 39.6162 1 37.9091C1 37.7733 1.0021 37.638 1.00626 37.5032C1.00211 37.4312 1 37.3587 1 37.2857C1 30.5005 6.5005 25 13.2857 25H16.0909C16.831 25 17.5565 25.0623 18.2625 25.1819C17.4518 26.9537 17 28.9241 17 31C17 34.9174 18.6089 38.459 21.202 41H4.09091Z" stroke="#0A1045"/>
<path fill-rule="evenodd" clip-rule="evenodd" d="M31 41C36.5228 41 41 36.5228 41 31C41 25.4772 36.5228 21 31 21C25.4772 21 21 25.4772 21 31C21 36.5228 25.4772 41 31 41ZM35 32.5C35.8284 32.5 36.5 31.8284 36.5 31C36.5 30.1716 35.8284 29.5 35 29.5H32.5V27C32.5 26.1716 31.8284 25.5 31 25.5C30.1716 25.5 29.5 26.1716 29.5 27V29.5H27C26.1716 29.5 25.5 30.1716 25.5 31C25.5 31.8284 26.1716 32.5 27 32.5H29.5V35C29.5 35.8284 30.1716 36.5 31 36.5C31.8284 36.5 32.5 35.8284 32.5 35V32.5H35Z" stroke="#0A1045"/>
</svg>
