<svg width="27" height="27" viewBox="0 0 27 27" fill="none" xmlns="http://www.w3.org/2000/svg">
<path fill-rule="evenodd" clip-rule="evenodd" d="M0 13.5C0 6.04416 6.04416 0 13.5 0C20.9558 0 27 6.04416 27 13.5C27 20.9558 20.9558 27 13.5 27C6.04416 27 0 20.9558 0 13.5ZM13.5 5.4C11.2632 5.4 9.45 7.21325 9.45 9.45C9.45 11.6868 11.2632 13.5 13.5 13.5C15.7368 13.5 17.55 11.6868 17.55 9.45C17.55 7.21325 15.7368 5.4 13.5 5.4ZM21.4578 20.8538L20.2503 20.25C21.4578 20.8538 21.4568 20.8557 21.4568 20.8557L21.4558 20.8577L21.4537 20.8619L21.4491 20.871L21.438 20.8921C21.4298 20.9075 21.4199 20.9255 21.4083 20.946C21.3852 20.9868 21.3551 21.0373 21.3173 21.0961C21.2418 21.2136 21.1353 21.3643 20.992 21.5362C20.7048 21.8808 20.2719 22.308 19.6491 22.7233C18.3908 23.5621 16.4364 24.3 13.5001 24.3C8.52518 24.3 6.43341 22.1811 5.75981 21.2105C5.35226 20.6232 5.39739 19.9372 5.64389 19.4442C6.63802 17.4559 8.67017 16.2 10.8931 16.2H15.8816C18.243 16.2 20.4018 17.5342 21.4578 19.6463C21.6479 20.0264 21.6478 20.4737 21.4578 20.8538Z" fill="#0A1045"/>
</svg>
