<svg width="18" height="18" viewBox="0 0 18 18" fill="none" xmlns="http://www.w3.org/2000/svg">
<path fill-rule="evenodd" clip-rule="evenodd" d="M4.5 0C2.01472 0 0 2.01472 0 4.5V13.5C0 15.9853 2.01472 18 4.5 18H13.5C15.9853 18 18 15.9853 18 13.5V8.1C18 5.89638 16.4161 4.06271 14.3246 3.67539C13.9373 1.58393 12.1036 0 9.9 0H4.5ZM12.4464 3.6C12.0757 2.55133 11.0756 1.8 9.9 1.8H4.5C3.3244 1.8 2.32429 2.55133 1.95364 3.6H12.4464ZM1.8 13.5V5.4H13.5C14.9912 5.4 16.2 6.60883 16.2 8.1V13.5C16.2 14.9912 14.9912 16.2 13.5 16.2H4.5C3.00883 16.2 1.8 14.9912 1.8 13.5Z" fill="#0A1045"/>
<path d="M14.4 10.8C14.4 11.7941 13.5941 12.6 12.6 12.6C11.6059 12.6 10.8 11.7941 10.8 10.8C10.8 9.80589 11.6059 9 12.6 9C13.5941 9 14.4 9.80589 14.4 10.8Z" fill="#0A1045"/>
</svg>
