<svg width="45" height="45" viewBox="0 0 45 45" fill="none" xmlns="http://www.w3.org/2000/svg">
<rect opacity="0.07" width="45" height="45" rx="5" fill="#D9DDEE"/>
<path d="M30.9204 32.9985C31.4943 33.5723 32.4246 33.5723 32.9985 32.9985C33.5723 32.4246 33.5723 31.4943 32.9985 30.9204L25.2212 23.1431L32.9985 15.3658C33.5723 14.792 33.5723 13.8616 32.9985 13.2878C32.4246 12.714 31.4943 12.714 30.9204 13.2878L23.1431 21.0651L15.3658 13.2878C14.792 12.714 13.8616 12.714 13.2878 13.2878C12.714 13.8616 12.714 14.792 13.2878 15.3658L21.0651 23.1431L13.2878 30.9204C12.714 31.4943 12.714 32.4246 13.2878 32.9985C13.8616 33.5723 14.792 33.5723 15.3658 32.9985L23.1431 25.2212L30.9204 32.9985Z" fill="white"/>
</svg>
