<svg width="40" height="40" viewBox="0 0 40 40" fill="none" xmlns="http://www.w3.org/2000/svg">
<rect width="40" height="40" rx="20" fill="#0A1045" fill-opacity="0.1"/>
<path d="M28.6925 20.6942C29.0966 18.0681 27.1222 15.6937 24.4958 15.583C24.4676 15.5803 24.4391 15.5789 24.4103 15.5789C24.3993 15.5789 24.3884 15.5791 24.3775 15.5795C24.353 15.5791 24.3286 15.5789 24.304 15.5789V15.5852C23.86 15.6377 23.5155 16.0155 23.5155 16.4737C23.5155 16.9319 23.86 17.3096 24.304 17.3622V17.3684C25.9286 17.3684 27.1709 18.8165 26.9239 20.4221L26.5215 23.0378C26.3812 23.9496 26.2832 24.5821 26.1676 25.0719C26.0547 25.5503 25.9394 25.8247 25.7984 26.0327C25.5297 26.4288 25.1601 26.746 24.7277 26.9512C24.5007 27.059 24.2119 27.1313 23.722 27.1701C23.2202 27.2099 22.5802 27.2105 21.6576 27.2105H19.1103C18.1877 27.2105 17.5477 27.2099 17.0459 27.1701C16.556 27.1313 16.2672 27.059 16.0402 26.9512C15.6078 26.746 15.2382 26.4288 14.9696 26.0327C14.8285 25.8247 14.7132 25.5503 14.6003 25.0719C14.4847 24.5821 14.3867 23.9496 14.2464 23.0378L13.8198 20.2646C13.5855 18.7418 14.7638 17.3684 16.3045 17.3684V17.3669C16.3221 17.3679 16.3398 17.3684 16.3576 17.3684C16.8518 17.3684 17.2524 16.9678 17.2524 16.4737C17.2524 15.9795 16.8518 15.5789 16.3576 15.5789C16.3398 15.5789 16.3221 15.5795 16.3045 15.5805V15.5789C13.667 15.5789 11.6501 17.9299 12.0511 20.5367L12.4833 23.3459C12.6167 24.213 12.7249 24.916 12.8587 25.4829C12.997 26.0693 13.177 26.5775 13.4884 27.0369C13.9361 27.6972 14.5522 28.2257 15.2729 28.5678C15.7743 28.8058 16.3039 28.9064 16.9045 28.954C17.4853 29 18.1963 29 19.0737 29L21.6941 29C22.5716 29 23.2826 29 23.8634 28.954C24.464 28.9064 24.9936 28.8058 25.495 28.5678C26.2157 28.2257 26.8318 27.6972 27.2795 27.0369C27.5909 26.5775 27.7709 26.0693 27.9093 25.4829C28.0431 24.9159 28.1512 24.2132 28.2846 23.3459L28.6925 20.6942Z" fill="#0A1045"/>
<path d="M22.4355 19.42C22.7849 19.0705 23.3514 19.0705 23.7008 19.42C24.0503 19.7694 24.0503 20.3359 23.7008 20.6853L21.0166 23.3695C20.6672 23.7189 20.1007 23.7189 19.7513 23.3695L17.0671 20.6853C16.7177 20.3359 16.7177 19.7694 17.0671 19.42C17.4165 19.0705 17.983 19.0705 18.3324 19.42L19.4892 20.5768V12.8947C19.4892 12.4006 19.8898 12 20.384 12C20.8781 12 21.2787 12.4006 21.2787 12.8947V20.5768L22.4355 19.42Z" fill="#0A1045"/>
</svg>
