<svg width="60" height="51" viewBox="0 0 60 51" fill="none" xmlns="http://www.w3.org/2000/svg">
<rect x="40" y="51" width="40" height="40" rx="20" transform="rotate(-180 40 51)" fill="#0A1045" fill-opacity="0.1"/>
<path d="M15.1428 37.5718L23.7143 24.7147" stroke="#0A1045" stroke-width="1.5" stroke-linecap="round" stroke-linejoin="round"/>
<path d="M15.8571 29.0004C17.0406 29.0004 17.9999 28.041 17.9999 26.8575C17.9999 25.6741 17.0406 24.7147 15.8571 24.7147C14.6736 24.7147 13.7142 25.6741 13.7142 26.8575C13.7142 28.041 14.6736 29.0004 15.8571 29.0004Z" stroke="#0A1045" stroke-width="1.5" stroke-linecap="round" stroke-linejoin="round"/>
<path d="M22.9999 37.5718C24.1834 37.5718 25.1428 36.6125 25.1428 35.429C25.1428 34.2455 24.1834 33.2861 22.9999 33.2861C21.8164 33.2861 20.8571 34.2455 20.8571 35.429C20.8571 36.6125 21.8164 37.5718 22.9999 37.5718Z" stroke="#0A1045" stroke-width="1.5" stroke-linecap="round" stroke-linejoin="round"/>
<rect x="2" width="58" height="17" rx="5" fill="#FF8500"/>
<path d="M6.624 6.712C6.4 7.144 6.296 7.64 6.296 8.2C6.296 8.776 6.4 9.272 6.624 9.704C6.848 10.136 7.16 10.464 7.568 10.696C7.976 10.936 8.456 11.048 9 11.048C9.424 11.048 9.808 10.968 10.144 10.808C10.48 10.648 10.752 10.424 10.96 10.128C11.168 9.84 11.304 9.496 11.368 9.096H10.448C10.352 9.456 10.176 9.736 9.92 9.936C9.664 10.144 9.344 10.24 8.96 10.24C8.608 10.24 8.304 10.16 8.048 9.984C7.784 9.808 7.584 9.568 7.448 9.256C7.304 8.952 7.24 8.6 7.24 8.2C7.24 7.8 7.304 7.448 7.448 7.144C7.584 6.84 7.784 6.6 8.048 6.424C8.304 6.248 8.608 6.16 8.96 6.16C9.344 6.16 9.664 6.264 9.928 6.464C10.184 6.672 10.36 6.952 10.456 7.304H11.376C11.312 6.92 11.176 6.576 10.968 6.28C10.752 5.984 10.472 5.752 10.136 5.592C9.8 5.432 9.416 5.352 9 5.352C8.456 5.352 7.976 5.472 7.568 5.712C7.16 5.952 6.848 6.28 6.624 6.712ZM12.9124 10.792C13.2324 10.968 13.5924 11.048 14.0084 11.048C14.4164 11.048 14.7764 10.968 15.0964 10.792C15.4164 10.616 15.6564 10.376 15.8324 10.056C16.0084 9.736 16.0964 9.368 16.0964 8.952C16.0964 8.544 16.0084 8.184 15.8324 7.864C15.6564 7.544 15.4164 7.296 15.0964 7.12C14.7764 6.944 14.4164 6.856 14.0084 6.856C13.5924 6.856 13.2324 6.944 12.9124 7.12C12.5924 7.296 12.3524 7.544 12.1764 7.864C12.0004 8.184 11.9204 8.544 11.9204 8.952C11.9204 9.368 12.0004 9.736 12.1764 10.056C12.3524 10.376 12.5924 10.616 12.9124 10.792ZM14.8804 9.936C14.6564 10.192 14.3684 10.312 14.0084 10.312C13.6404 10.312 13.3524 10.192 13.1364 9.936C12.9124 9.68 12.8084 9.352 12.8084 8.952C12.8084 8.552 12.9124 8.232 13.1364 7.976C13.3524 7.72 13.6404 7.592 14.0084 7.592C14.3684 7.592 14.6564 7.72 14.8804 7.976C15.1044 8.232 15.2164 8.552 15.2164 8.952C15.2164 9.352 15.1044 9.68 14.8804 9.936ZM22.6152 7.296C22.3272 7.008 21.9672 6.856 21.5192 6.856C21.1832 6.856 20.9032 6.928 20.6712 7.056C20.4312 7.184 20.2472 7.368 20.1032 7.6C19.9832 7.352 19.8152 7.168 19.5992 7.04C19.3752 6.92 19.1272 6.856 18.8392 6.856C18.3272 6.864 17.9272 7.056 17.6392 7.44L17.5432 6.904H16.7912V11H17.6552V8.808C17.6552 8.44 17.7352 8.152 17.9112 7.928C18.0872 7.712 18.3192 7.6 18.6152 7.6C18.8952 7.6 19.1112 7.696 19.2552 7.88C19.3992 8.064 19.4792 8.336 19.4792 8.696V11H20.3512V8.784C20.3512 8.416 20.4312 8.128 20.6072 7.92C20.7832 7.712 21.0152 7.6 21.3192 7.6C21.5992 7.6 21.8152 7.696 21.9592 7.88C22.1032 8.072 22.1752 8.344 22.1752 8.696V11H23.0392V8.688C23.0392 8.048 22.8952 7.584 22.6152 7.296ZM24.6304 5.416C24.5264 5.32 24.3984 5.264 24.2544 5.264C24.1024 5.264 23.9744 5.32 23.8784 5.416C23.7744 5.512 23.7264 5.64 23.7264 5.784C23.7264 5.936 23.7744 6.064 23.8784 6.16C23.9744 6.256 24.1024 6.304 24.2544 6.304C24.3984 6.304 24.5264 6.256 24.6304 6.16C24.7264 6.064 24.7824 5.936 24.7824 5.784C24.7824 5.64 24.7264 5.512 24.6304 5.416ZM23.8224 6.904V11H24.6864V6.904H23.8224ZM28.8774 7.304C28.5734 7.008 28.1734 6.856 27.6934 6.856C27.1254 6.856 26.6854 7.056 26.3814 7.44L26.2854 6.904H25.5334V11H26.3974V8.936C26.3974 8.52 26.4934 8.2 26.6854 7.96C26.8774 7.72 27.1494 7.6 27.4934 7.6C27.8134 7.6 28.0534 7.704 28.2214 7.904C28.3814 8.112 28.4694 8.408 28.4694 8.792V11H29.3414V8.744C29.3414 8.088 29.1814 7.608 28.8774 7.304ZM34.1031 6.904H33.3511L33.2551 7.544C33.1111 7.336 32.9351 7.168 32.7111 7.04C32.4871 6.92 32.2151 6.856 31.9111 6.856C31.5431 6.856 31.2071 6.944 30.9191 7.12C30.6231 7.296 30.3911 7.536 30.2231 7.848C30.0551 8.168 29.9751 8.528 29.9751 8.936C29.9751 9.368 30.0551 9.736 30.2231 10.048C30.3831 10.36 30.6151 10.6 30.9111 10.768C31.1991 10.936 31.5351 11.016 31.9111 11.016C32.5031 11.016 32.9431 10.792 33.2471 10.344V10.8C33.2471 11.568 32.8551 11.944 32.0711 11.944C31.7671 11.944 31.5191 11.888 31.3271 11.76C31.1351 11.632 31.0071 11.456 30.9591 11.224H30.0791C30.1111 11.68 30.3031 12.032 30.6551 12.28C30.9991 12.528 31.4471 12.648 32.0071 12.648C32.7191 12.648 33.2471 12.496 33.5911 12.176C33.9271 11.856 34.1031 11.408 34.1031 10.832V6.904ZM32.9191 9.92C32.6951 10.168 32.4071 10.288 32.0551 10.288C31.6951 10.288 31.4071 10.168 31.1911 9.912C30.9671 9.664 30.8631 9.336 30.8631 8.936C30.8631 8.536 30.9671 8.216 31.1911 7.96C31.4071 7.712 31.6951 7.584 32.0551 7.584C32.4071 7.584 32.6951 7.712 32.9191 7.968C33.1351 8.224 33.2471 8.552 33.2471 8.952C33.2471 9.352 33.1351 9.672 32.9191 9.92ZM37.6823 9.648H36.8503C36.8583 10.088 37.0343 10.432 37.3703 10.68C37.7063 10.928 38.1543 11.048 38.7063 11.048C39.0263 11.048 39.3223 11 39.5863 10.896C39.8423 10.792 40.0503 10.64 40.2023 10.448C40.3463 10.256 40.4263 10.024 40.4263 9.768C40.4263 9.48 40.3543 9.256 40.2103 9.088C40.0663 8.92 39.8743 8.8 39.6343 8.72C39.3943 8.64 39.0983 8.584 38.7463 8.544C38.4823 8.512 38.2903 8.488 38.1783 8.464C38.0583 8.44 37.9623 8.4 37.8823 8.336C37.8023 8.272 37.7703 8.184 37.7703 8.056C37.7703 7.896 37.8423 7.76 38.0023 7.664C38.1543 7.568 38.3543 7.52 38.6103 7.52C38.8583 7.52 39.0663 7.584 39.2343 7.704C39.3943 7.824 39.4903 7.976 39.5143 8.16H40.3543C40.3223 7.744 40.1463 7.424 39.8263 7.192C39.5063 6.968 39.0823 6.848 38.5703 6.848C38.2503 6.848 37.9703 6.904 37.7223 7.008C37.4743 7.12 37.2823 7.272 37.1383 7.464C36.9943 7.656 36.9303 7.88 36.9303 8.128C36.9303 8.4 36.9943 8.608 37.1383 8.768C37.2823 8.928 37.4663 9.04 37.6983 9.112C37.9303 9.184 38.2263 9.24 38.5863 9.28C38.8423 9.312 39.0343 9.344 39.1623 9.376C39.2903 9.408 39.3863 9.456 39.4663 9.52C39.5383 9.592 39.5783 9.696 39.5783 9.832C39.5783 10 39.4903 10.136 39.3303 10.232C39.1703 10.328 38.9543 10.376 38.6983 10.376C38.4023 10.376 38.1623 10.312 37.9783 10.176C37.7943 10.04 37.6983 9.864 37.6823 9.648ZM41.9671 10.792C42.2871 10.968 42.6471 11.048 43.0631 11.048C43.4711 11.048 43.8311 10.968 44.1511 10.792C44.4711 10.616 44.7111 10.376 44.8871 10.056C45.0631 9.736 45.1511 9.368 45.1511 8.952C45.1511 8.544 45.0631 8.184 44.8871 7.864C44.7111 7.544 44.4711 7.296 44.1511 7.12C43.8311 6.944 43.4711 6.856 43.0631 6.856C42.6471 6.856 42.2871 6.944 41.9671 7.12C41.6471 7.296 41.4071 7.544 41.2311 7.864C41.0551 8.184 40.9751 8.544 40.9751 8.952C40.9751 9.368 41.0551 9.736 41.2311 10.056C41.4071 10.376 41.6471 10.616 41.9671 10.792ZM43.9351 9.936C43.7111 10.192 43.4231 10.312 43.0631 10.312C42.6951 10.312 42.4071 10.192 42.1911 9.936C41.9671 9.68 41.8631 9.352 41.8631 8.952C41.8631 8.552 41.9671 8.232 42.1911 7.976C42.4071 7.72 42.6951 7.592 43.0631 7.592C43.4231 7.592 43.7111 7.72 43.9351 7.976C44.1591 8.232 44.2711 8.552 44.2711 8.952C44.2711 9.352 44.1591 9.68 43.9351 9.936ZM46.6859 10.792C47.0059 10.968 47.3659 11.048 47.7819 11.048C48.1899 11.048 48.5499 10.968 48.8699 10.792C49.1899 10.616 49.4299 10.376 49.6059 10.056C49.7819 9.736 49.8699 9.368 49.8699 8.952C49.8699 8.544 49.7819 8.184 49.6059 7.864C49.4299 7.544 49.1899 7.296 48.8699 7.12C48.5499 6.944 48.1899 6.856 47.7819 6.856C47.3659 6.856 47.0059 6.944 46.6859 7.12C46.3659 7.296 46.1259 7.544 45.9499 7.864C45.7739 8.184 45.6939 8.544 45.6939 8.952C45.6939 9.368 45.7739 9.736 45.9499 10.056C46.1259 10.376 46.3659 10.616 46.6859 10.792ZM48.6539 9.936C48.4299 10.192 48.1419 10.312 47.7819 10.312C47.4139 10.312 47.1259 10.192 46.9099 9.936C46.6859 9.68 46.5819 9.352 46.5819 8.952C46.5819 8.552 46.6859 8.232 46.9099 7.976C47.1259 7.72 47.4139 7.592 47.7819 7.592C48.1419 7.592 48.4299 7.72 48.6539 7.976C48.8779 8.232 48.9899 8.552 48.9899 8.952C48.9899 9.352 48.8779 9.68 48.6539 9.936ZM53.9086 7.304C53.6046 7.008 53.2046 6.856 52.7246 6.856C52.1566 6.856 51.7166 7.056 51.4126 7.44L51.3166 6.904H50.5646V11H51.4286V8.936C51.4286 8.52 51.5246 8.2 51.7166 7.96C51.9086 7.72 52.1806 7.6 52.5246 7.6C52.8446 7.6 53.0846 7.704 53.2526 7.904C53.4126 8.112 53.5006 8.408 53.5006 8.792V11H54.3726V8.744C54.3726 8.088 54.2126 7.608 53.9086 7.304Z" fill="white"/>
</svg>
