<svg width="40" height="40" viewBox="0 0 40 40" fill="none" xmlns="http://www.w3.org/2000/svg">
<rect x="40" y="40" width="40" height="40" rx="20" transform="rotate(-180 40 40)" fill="#0A1045" fill-opacity="0.1"/>
<path d="M11.3075 19.3058C10.9034 21.9319 12.8778 24.3063 15.5042 24.417C15.5324 24.4197 15.5609 24.4211 15.5897 24.4211C15.6007 24.4211 15.6116 24.4209 15.6225 24.4205C15.647 24.4209 15.6714 24.4211 15.696 24.4211V24.4148C16.14 24.3623 16.4845 23.9845 16.4845 23.5263C16.4845 23.0681 16.14 22.6904 15.696 22.6378V22.6316C14.0714 22.6316 12.8291 21.1835 13.0761 19.5779L13.4785 16.9622C13.6188 16.0504 13.7168 15.4179 13.8324 14.9281C13.9453 14.4497 14.0606 14.1753 14.2016 13.9673C14.4703 13.5712 14.8399 13.254 15.2723 13.0488C15.4993 12.941 15.7881 12.8687 16.278 12.8299C16.7798 12.7901 17.4198 12.7895 18.3424 12.7895L20.8897 12.7895C21.8123 12.7895 22.4523 12.7901 22.9541 12.8299C23.444 12.8687 23.7328 12.941 23.9598 13.0488C24.3922 13.254 24.7618 13.5712 25.0304 13.9673C25.1715 14.1753 25.2868 14.4497 25.3997 14.9281C25.5153 15.4179 25.6133 16.0504 25.7536 16.9622L26.1802 19.7354C26.4145 21.2582 25.2362 22.6316 23.6955 22.6316V22.6331C23.6779 22.6321 23.6602 22.6316 23.6424 22.6316C23.1482 22.6316 22.7476 23.0322 22.7476 23.5263C22.7476 24.0205 23.1482 24.4211 23.6424 24.4211C23.6602 24.4211 23.6779 24.4205 23.6955 24.4195V24.4211C26.333 24.4211 28.3499 22.0701 27.9489 19.4633L27.5167 16.6541C27.3833 15.787 27.2751 15.084 27.1413 14.5171C27.003 13.9307 26.823 13.4225 26.5116 12.9631C26.0639 12.3028 25.4478 11.7743 24.7271 11.4322C24.2257 11.1942 23.6961 11.0936 23.0955 11.046C22.5147 11 21.8037 11 20.9263 11H18.3059C17.4284 11 16.7174 11 16.1366 11.046C15.536 11.0936 15.0064 11.1942 14.505 11.4322C13.7843 11.7743 13.1682 12.3028 12.7205 12.9631C12.4091 13.4225 12.2291 13.9307 12.0907 14.5171C11.9569 15.0841 11.8488 15.7868 11.7154 16.6541L11.3075 19.3058Z" fill="#0A1045"/>
<path d="M17.5645 20.58C17.2151 20.9295 16.6486 20.9295 16.2992 20.58C15.9497 20.2306 15.9497 19.6641 16.2992 19.3147L18.9834 16.6305C19.3328 16.2811 19.8993 16.2811 20.2487 16.6305L22.9329 19.3147C23.2823 19.6641 23.2823 20.2306 22.9329 20.58C22.5835 20.9295 22.017 20.9295 21.6676 20.58L20.5108 19.4232V27.1053C20.5108 27.5994 20.1102 28 19.616 28C19.1219 28 18.7213 27.5994 18.7213 27.1053L18.7213 19.4232L17.5645 20.58Z" fill="#0A1045"/>
</svg>
