<svg width="359" height="271" viewBox="0 0 359 271" fill="none" xmlns="http://www.w3.org/2000/svg">
<path d="M45.4001 96.7891L0.600098 97.7876V270.532H45.4001V96.7891Z" fill="#1B49FF"/>
<path d="M46.1 271.23H0V97.188L46.1 96.1895V271.23ZM1.29999 269.932H44.8V97.4875L1.29999 98.3862V269.932Z" fill="#161622"/>
<path d="M45.5 138.127H17.5V139.426H45.5V138.127Z" fill="#161622"/>
<path d="M45.5 143.719H17.5V145.017H45.5V143.719Z" fill="#161622"/>
<path d="M45.5 149.211H17.5V150.509H45.5V149.211Z" fill="#161622"/>
<path d="M45.5 154.803H17.5V156.101H45.5V154.803Z" fill="#161622"/>
<path d="M45.5 160.395H17.5V161.693H45.5V160.395Z" fill="#161622"/>
<path d="M45.5 165.886H17.5V167.184H45.5V165.886Z" fill="#161622"/>
<path d="M45.5 171.478H17.5V172.776H45.5V171.478Z" fill="#161622"/>
<path d="M45.5 176.97H17.5V178.268H45.5V176.97Z" fill="#161622"/>
<path d="M45.5 182.562H17.5V183.86H45.5V182.562Z" fill="#161622"/>
<path d="M45.5 188.153H17.5V189.451H45.5V188.153Z" fill="#161622"/>
<path d="M45.5 193.645H17.5V194.943H45.5V193.645Z" fill="#161622"/>
<path d="M45.5 199.237H17.5V200.535H45.5V199.237Z" fill="#161622"/>
<path d="M45.5 204.729H17.5V206.027H45.5V204.729Z" fill="#161622"/>
<path d="M45.5 210.32H17.5V211.618H45.5V210.32Z" fill="#161622"/>
<path d="M45.5 215.912H17.5V217.21H45.5V215.912Z" fill="#161622"/>
<path d="M45.5 221.404H17.5V222.702H45.5V221.404Z" fill="#161622"/>
<path d="M45.5 226.996H17.5V228.294H45.5V226.996Z" fill="#161622"/>
<path d="M45.5 232.488H17.5V233.786H45.5V232.488Z" fill="#161622"/>
<path d="M45.5 238.079H17.5V239.377H45.5V238.079Z" fill="#161622"/>
<path d="M45.5 243.571H17.5V244.869H45.5V243.571Z" fill="#161622"/>
<path d="M45.5 249.163H17.5V250.461H45.5V249.163Z" fill="#161622"/>
<path d="M45.5 254.755H17.5V256.053H45.5V254.755Z" fill="#161622"/>
<path d="M45.3999 89.6992H6.3999V97.4877H45.3999V89.6992Z" fill="#1B49FF"/>
<path d="M46.1 98.1864H5.69995V89H46.1V98.1864ZM7.09998 96.7885H44.7V90.3979H7.09998V96.7885Z" fill="#161622"/>
<path d="M342 269.702H0V271H342V269.702Z" fill="#161622"/>
<path d="M341.3 1.19824H245.8V269.401H341.3V1.19824Z" fill="#708DFF"/>
<path d="M342.1 270.001H245.2V0.5H342.1V270.001ZM246.5 268.603H340.6V1.89792H246.5V268.603Z" fill="#161622"/>
<path d="M315.6 28.6582H271.2V33.8505H315.6V28.6582Z" fill="#47AFFF"/>
<path d="M316.3 34.5492H270.5V27.959H316.3V34.5492ZM271.9 33.1513H314.9V29.3569H271.9V33.1513Z" fill="#161622"/>
<path d="M315.6 44.2344H271.2V49.4267H315.6V44.2344Z" fill="#47AFFF"/>
<path d="M316.3 50.1254H270.5V43.5352H316.3V50.1254ZM271.9 48.7274H314.9V44.9331H271.9V48.7274Z" fill="#161622"/>
<path d="M315.6 59.8115H271.2V65.0038H315.6V59.8115Z" fill="#47AFFF"/>
<path d="M316.3 65.7025H270.5V59.1123H316.3V65.7025ZM271.9 64.3046H314.9V60.5102H271.9V64.3046Z" fill="#161622"/>
<path d="M315.6 75.3887H271.2V80.581H315.6V75.3887Z" fill="#47AFFF"/>
<path d="M316.3 81.2797H270.5V74.6895H316.3V81.2797ZM271.9 79.8818H314.9V76.0874H271.9V79.8818Z" fill="#161622"/>
<path d="M315.6 90.9658H271.2V96.1581H315.6V90.9658Z" fill="#47AFFF"/>
<path d="M316.3 96.9564H270.5V90.3662H316.3V96.9564ZM271.9 95.5585H314.9V91.7641H271.9V95.5585Z" fill="#161622"/>
<path d="M315.6 106.643H271.2V111.835H315.6V106.643Z" fill="#47AFFF"/>
<path d="M316.3 112.534H270.5V105.943H316.3V112.534ZM271.9 111.136H314.9V107.341H271.9V111.136Z" fill="#161622"/>
<path d="M315.6 122.219H271.2V127.411H315.6V122.219Z" fill="#47AFFF"/>
<path d="M316.3 128.11H270.5V121.52H316.3V128.11ZM271.9 126.712H314.9V122.917H271.9V126.712Z" fill="#161622"/>
<path d="M315.6 137.796H271.2V142.988H315.6V137.796Z" fill="#47AFFF"/>
<path d="M316.3 143.687H270.5V137.097H316.3V143.687ZM271.9 142.289H314.9V138.495H271.9V142.289Z" fill="#161622"/>
<path d="M315.6 153.373H271.2V158.565H315.6V153.373Z" fill="#47AFFF"/>
<path d="M316.3 159.264H270.5V152.674H316.3V159.264ZM271.9 157.866H314.9V154.072H271.9V157.866Z" fill="#161622"/>
<path d="M315.6 168.95H271.2V174.142H315.6V168.95Z" fill="#47AFFF"/>
<path d="M316.3 174.841H270.5V168.25H316.3V174.841ZM271.9 173.443H314.9V169.648H271.9V173.443Z" fill="#161622"/>
<path d="M315.6 184.526H271.2V189.719H315.6V184.526Z" fill="#47AFFF"/>
<path d="M316.3 190.418H270.5V183.828H316.3V190.418ZM271.9 189.02H314.9V185.226H271.9V189.02Z" fill="#161622"/>
<path d="M315.6 200.104H271.2V205.296H315.6V200.104Z" fill="#47AFFF"/>
<path d="M316.3 205.995H270.5V199.405H316.3V205.995ZM271.9 204.597H314.9V200.803H271.9V204.597Z" fill="#161622"/>
<path d="M315.6 215.68H271.2V220.873H315.6V215.68Z" fill="#708DFF"/>
<path d="M316.3 221.572H270.5V214.981H316.3V221.572ZM271.9 220.174H314.9V216.379H271.9V220.174Z" fill="#161622"/>
<path d="M315.6 231.257H271.2V236.45H315.6V231.257Z" fill="#708DFF"/>
<path d="M316.3 237.149H270.5V230.559H316.3V237.149ZM271.9 235.751H314.9V231.956H271.9V235.751Z" fill="#161622"/>
<path d="M245.8 1.19824L220.8 14.179V269.301H245.8V1.19824Z" fill="#1B49FF"/>
<path d="M246.5 270H220V13.6797L246.5 0V270ZM221.5 268.602H245.2V2.29658L221.5 14.5784V268.602Z" fill="#161622"/>
<path d="M186.6 165.799L146.9 192.06V269.845H225.1V192.06L186.6 165.799Z" fill="#1B49FF"/>
<path d="M225.8 270.544H146.2V191.661L186.6 165L225.8 191.661V270.544ZM147.6 269.146H224.4V192.359L186.6 166.598L147.6 192.359V269.146Z" fill="#161622"/>
<path d="M100.6 192.06L139.9 165.799H186.6L146.9 192.06H100.6Z" fill="#708DFF"/>
<path d="M146.9 192.759H100.7L100.3 191.461L139.5 165.2L139.9 165.1H186.6L187 166.398L147.3 192.659L146.9 192.759ZM103 191.361H146.7L184.3 166.498H140.2L103 191.361Z" fill="#161622"/>
<path d="M146.8 192.06H100.6V269.844H146.8V192.06Z" fill="#708DFF"/>
<path d="M147.6 270.544H100V191.361H147.6V270.544ZM101.3 269.146H146.1V192.759H101.3V269.146Z" fill="#161622"/>
<path d="M179.6 200.647H169.8V218.82H179.6V200.647Z" fill="#47AFFF"/>
<path d="M179.6 219.519H169.8L169.1 218.82V200.647L169.8 199.948H179.6L180.3 200.647V218.82L179.6 219.519ZM170.5 218.121H178.9V201.346H170.5V218.121Z" fill="#161622"/>
<path d="M201 200.647H191.2V218.82H201V200.647Z" fill="#47AFFF"/>
<path d="M200.9 219.519H191.1L190.4 218.82V200.647L191.1 199.948H200.9L201.6 200.647V218.82L200.9 219.519ZM191.9 218.121H200.3V201.346H191.9V218.121Z" fill="#161622"/>
<path d="M184.4 232.101C177.4 232.101 171.7 237.792 171.7 244.782V269.845H197.1V244.782C197.1 237.792 191.4 232.101 184.4 232.101Z" fill="#47AFFF"/>
<path d="M197.1 270.544H171.7L171 269.845V244.782C171 237.393 177 231.402 184.4 231.402C191.8 231.402 197.8 237.393 197.8 244.782V269.845L197.1 270.544ZM172.5 269.146H196.5V244.782C196.5 238.192 191.1 232.8 184.5 232.8C177.9 232.8 172.5 238.192 172.5 244.782V269.146Z" fill="#161622"/>
<path d="M99.2 105.198L124.2 118.179V270.453H99.2V105.198Z" fill="#708DFF"/>
<path d="M124.9 271.152H98.3999V104L124.9 117.68V271.152ZM99.8999 269.754H123.6V118.578L99.8999 106.297V269.754Z" fill="#161622"/>
<path d="M99.1001 105.198H40.6001V270.553H99.1001V105.198Z" fill="#1B49FF"/>
<path d="M99.9 271.153H40V104.5H99.9V271.153ZM41.4 269.755H98.5V105.898H41.4V269.755Z" fill="#161622"/>
<path d="M59.3999 123.371H49.8999V140.646H59.3999V123.371Z" fill="#47AFFF"/>
<path d="M60.1 141.344H49.2V122.672H60.1V141.344ZM50.6 139.946H58.7V124.07H50.6V139.946Z" fill="#161622"/>
<path d="M74.6001 123.371H65.1001V140.646H74.6001V123.371Z" fill="#47AFFF"/>
<path d="M75.4 141.344H64.5V122.672H75.4V141.344ZM65.8 139.946H73.9V124.07H65.8V139.946Z" fill="#161622"/>
<path d="M89.9001 123.371H80.4001V140.646H89.9001V123.371Z" fill="#47AFFF"/>
<path d="M90.7001 141.344H79.8V122.672H90.7001V141.344ZM81.1001 139.946H89.2001V124.07H81.1001V139.946Z" fill="#161622"/>
<path d="M59.3999 152.529H49.8999V169.804H59.3999V152.529Z" fill="#47AFFF"/>
<path d="M60.1 170.602H49.2V151.929H60.1V170.602ZM50.6 169.204H58.7V153.327H50.6V169.204Z" fill="#161622"/>
<path d="M74.6001 152.529H65.1001V169.804H74.6001V152.529Z" fill="#47AFFF"/>
<path d="M75.4 170.602H64.5V151.929H75.4V170.602ZM65.8 169.204H73.9V153.327H65.8V169.204Z" fill="#161622"/>
<path d="M89.9001 152.529H80.4001V169.804H89.9001V152.529Z" fill="#47AFFF"/>
<path d="M90.7001 170.602H79.8V151.929H90.7001V170.602ZM81.1001 169.204H89.2001V153.327H81.1001V169.204Z" fill="#161622"/>
<path d="M59.3999 181.785H49.8999V199.06H59.3999V181.785Z" fill="#47AFFF"/>
<path d="M60.1 199.758H49.2V181.086H60.1V199.758ZM50.6 198.36H58.7V182.484H50.6V198.36Z" fill="#161622"/>
<path d="M74.6001 181.785H65.1001V199.06H74.6001V181.785Z" fill="#47AFFF"/>
<path d="M75.4 199.758H64.5V181.086H75.4V199.758ZM65.8 198.36H73.9V182.484H65.8V198.36Z" fill="#161622"/>
<path d="M89.9001 181.785H80.4001V199.06H89.9001V181.785Z" fill="#47AFFF"/>
<path d="M90.7001 199.758H79.8V181.086H90.7001V199.758ZM81.1001 198.36H89.2001V182.484H81.1001V198.36Z" fill="#161622"/>
<path d="M59.3999 211.041H49.8999V228.315H59.3999V211.041Z" fill="#47AFFF"/>
<path d="M60.1 229.015H49.2V210.342H60.1V229.015ZM50.6 227.617H58.7V211.74H50.6V227.617Z" fill="#161622"/>
<path d="M74.6001 211.041H65.1001V228.315H74.6001V211.041Z" fill="#47AFFF"/>
<path d="M75.4 229.015H64.5V210.342H75.4V229.015ZM65.8 227.617H73.9V211.74H65.8V227.617Z" fill="#161622"/>
<path d="M89.9001 211.041H80.4001V228.315H89.9001V211.041Z" fill="#47AFFF"/>
<path d="M90.7001 229.015H79.8V210.342H90.7001V229.015ZM81.1001 227.617H89.2001V211.74H81.1001V227.617Z" fill="#161622"/>
<path d="M59.3999 240.199H49.8999V257.474H59.3999V240.199Z" fill="#47AFFF"/>
<path d="M60.1 258.271H49.2V239.599H60.1V258.271ZM50.6 256.874H58.7V240.997H50.6V256.874Z" fill="#161622"/>
<path d="M74.6001 240.199H65.1001V257.474H74.6001V240.199Z" fill="#47AFFF"/>
<path d="M75.4 258.271H64.5V239.599H75.4V258.271ZM65.8 256.874H73.9V240.997H65.8V256.874Z" fill="#161622"/>
<path d="M89.9001 240.199H80.4001V257.474H89.9001V240.199Z" fill="#47AFFF"/>
<path d="M90.7001 258.271H79.8V239.599H90.7001V258.271ZM81.1001 256.874H89.2001V240.997H81.1001V256.874Z" fill="#161622"/>
<path d="M235.842 234.752H234.442V270.199H235.842V234.752Z" fill="#161622"/>
<path d="M244.169 209.352C244.937 204.616 241.714 200.155 236.971 199.388C232.228 198.621 227.76 201.84 226.992 206.576C226.224 211.312 229.447 215.773 234.19 216.54C238.934 217.307 243.401 214.089 244.169 209.352Z" fill="#161622"/>
<path d="M243.601 247.152C244.888 241.733 241.531 236.298 236.103 235.013C230.676 233.728 225.233 237.08 223.946 242.499C222.659 247.919 226.016 253.354 231.443 254.639C236.871 255.924 242.314 252.572 243.601 247.152Z" fill="#161622"/>
<path d="M250.279 225.459C253.676 222.066 253.676 216.566 250.279 213.173C246.881 209.781 241.373 209.781 237.975 213.173C234.578 216.566 234.578 222.066 237.975 225.459C241.373 228.851 246.881 228.851 250.279 225.459Z" fill="#161622"/>
<path d="M223.742 248.232C228.546 248.232 232.442 244.343 232.442 239.545C232.442 234.747 228.546 230.858 223.742 230.858C218.937 230.858 215.042 234.747 215.042 239.545C215.042 244.343 218.937 248.232 223.742 248.232Z" fill="#161622"/>
<path d="M236.88 232.257C241.644 227.5 241.644 219.787 236.88 215.03C232.115 210.272 224.391 210.272 219.627 215.03C214.862 219.787 214.862 227.5 219.627 232.257C224.391 237.015 232.115 237.015 236.88 232.257Z" fill="#161622"/>
<path d="M244.142 248.032C250.879 248.032 256.342 242.578 256.342 235.85C256.342 229.123 250.879 223.668 244.142 223.668C237.404 223.668 231.942 229.123 231.942 235.85C231.942 242.578 237.404 248.032 244.142 248.032Z" fill="#161622"/>
<path d="M245.76 238.39C247.57 231.111 243.128 223.745 235.839 221.938C228.549 220.13 221.172 224.565 219.362 231.844C217.552 239.123 221.994 246.489 229.283 248.296C236.573 250.104 243.95 245.668 245.76 238.39Z" fill="#161622"/>
<path d="M268.7 270.169H256C256 266.674 258.8 263.878 262.3 263.878C263 263.878 263.8 263.978 264.4 264.277C267 265.076 268.7 267.373 268.7 270.169Z" fill="#161622"/>
<path d="M319.3 270.169H306.6C306.6 267.173 308.6 264.677 311.4 263.978C311.9 263.878 312.4 263.778 312.9 263.778C316.5 263.878 319.3 266.674 319.3 270.169Z" fill="#161622"/>
<path d="M312.1 267.572C312.1 268.471 312 269.37 311.8 270.169H292.3C292.1 269.37 292 268.471 292 267.572C292 263.878 293.9 260.683 296.9 258.985C298.4 258.086 300.2 257.487 302.1 257.487C306.4 257.487 310.1 260.183 311.5 263.978C311.9 265.176 312.1 266.374 312.1 267.572Z" fill="#161622"/>
<path d="M298.2 265.875C298.2 267.373 298 268.771 297.6 270.169H264.9C264.5 268.771 264.3 267.373 264.3 265.875C264.3 265.276 264.3 264.777 264.4 264.178C265.3 255.69 272.5 249 281.2 249C288.1 249 294 253.094 296.6 258.985C297.7 261.082 298.2 263.379 298.2 265.875Z" fill="#161622"/>
<path d="M89.7 269.844H77C77 266.35 79.8 263.554 83.3 263.554C84 263.554 84.8 263.654 85.4 263.953C88 264.752 89.7 267.049 89.7 269.844Z" fill="#161622"/>
<path d="M140.4 269.845H127.7C127.7 266.849 129.7 264.353 132.5 263.654C133 263.554 133.5 263.454 134 263.454C137.5 263.554 140.4 266.35 140.4 269.845Z" fill="#161622"/>
<path d="M133.1 267.248C133.1 268.147 133 269.046 132.8 269.844H113.3C113.1 269.046 113 268.147 113 267.248C113 263.554 114.9 260.358 117.9 258.661C119.4 257.762 121.2 257.163 123.1 257.163C127.4 257.163 131.1 259.859 132.5 263.653C132.9 264.852 133.1 266.05 133.1 267.248Z" fill="#161622"/>
<path d="M119.3 265.551C119.3 267.049 119.1 268.447 118.7 269.844H85.9999C85.5999 268.447 85.3999 267.049 85.3999 265.551C85.3999 264.952 85.3999 264.452 85.4999 263.853C86.3999 255.366 93.5999 248.676 102.3 248.676C109.2 248.676 115.1 252.77 117.7 258.661C118.7 260.758 119.3 263.055 119.3 265.551Z" fill="#161622"/>
</svg>
