<svg width="414" height="316" viewBox="0 0 414 316" fill="none" xmlns="http://www.w3.org/2000/svg">
<path d="M415.404 119.782L359.248 121.034V337.565H415.404V119.782Z" fill="#1B49FF"/>
<path d="M416.281 338.441H358.496V120.282L416.281 119.03V338.441ZM360.125 336.813H414.652V120.657L360.125 121.784V336.813Z" fill="#161622"/>
<path d="M415.529 171.599H380.432V173.226H415.529V171.599Z" fill="#161622"/>
<path d="M415.529 178.608H380.432V180.235H415.529V178.608Z" fill="#161622"/>
<path d="M415.529 185.492H380.432V187.119H415.529V185.492Z" fill="#161622"/>
<path d="M415.529 192.501H380.432V194.128H415.529V192.501Z" fill="#161622"/>
<path d="M415.529 199.51H380.432V201.137H415.529V199.51Z" fill="#161622"/>
<path d="M415.529 206.394H380.432V208.021H415.529V206.394Z" fill="#161622"/>
<path d="M415.529 213.403H380.432V215.03H415.529V213.403Z" fill="#161622"/>
<path d="M415.529 220.287H380.432V221.914H415.529V220.287Z" fill="#161622"/>
<path d="M415.529 227.296H380.432V228.923H415.529V227.296Z" fill="#161622"/>
<path d="M415.529 234.305H380.432V235.932H415.529V234.305Z" fill="#161622"/>
<path d="M415.529 241.189H380.432V242.816H415.529V241.189Z" fill="#161622"/>
<path d="M415.529 248.198H380.432V249.825H415.529V248.198Z" fill="#161622"/>
<path d="M415.529 255.082H380.432V256.709H415.529V255.082Z" fill="#161622"/>
<path d="M415.529 262.091H380.432V263.718H415.529V262.091Z" fill="#161622"/>
<path d="M415.529 269.101H380.432V270.728H415.529V269.101Z" fill="#161622"/>
<path d="M415.529 275.984H380.432V277.611H415.529V275.984Z" fill="#161622"/>
<path d="M415.529 282.993H380.432V284.62H415.529V282.993Z" fill="#161622"/>
<path d="M415.529 289.877H380.432V291.505H415.529V289.877Z" fill="#161622"/>
<path d="M415.529 296.887H380.432V298.514H415.529V296.887Z" fill="#161622"/>
<path d="M415.529 303.771H380.432V305.398H415.529V303.771Z" fill="#161622"/>
<path d="M415.529 310.78H380.432V312.407H415.529V310.78Z" fill="#161622"/>
<path d="M415.404 110.895H366.518V120.657H415.404V110.895Z" fill="#1B49FF"/>
<path d="M416.281 121.534H365.641V110.019H416.281V121.534ZM367.396 119.781H414.526V111.771H367.396V119.781Z" fill="#161622"/>
<path d="M324.151 1.50195H204.443V337.689H324.151V1.50195Z" fill="#708DFF"/>
<path d="M325.153 338.441H203.691V0.626953H325.153V338.441ZM205.32 336.689H323.273V2.37922H205.32V336.689Z" fill="#161622"/>
<path d="M291.936 35.9219H236.281V42.4303H291.936V35.9219Z" fill="#47AFFF"/>
<path d="M292.813 43.3066H235.404V35.0459H292.813V43.3066ZM237.159 41.5544H291.058V36.7982H237.159V41.5544Z" fill="#161622"/>
<path d="M291.936 55.4473H236.281V61.9557H291.936V55.4473Z" fill="#47AFFF"/>
<path d="M292.813 62.832H235.404V54.5713H292.813V62.832ZM237.159 61.0797H291.058V56.3236H237.159V61.0797Z" fill="#161622"/>
<path d="M291.936 74.9727H236.281V81.4811H291.936V74.9727Z" fill="#47AFFF"/>
<path d="M292.813 82.3574H235.404V74.0967H292.813V82.3574ZM237.159 80.6051H291.058V75.849H237.159V80.6051Z" fill="#161622"/>
<path d="M291.936 94.498H236.281V101.007H291.936V94.498Z" fill="#47AFFF"/>
<path d="M292.813 101.883H235.404V93.6221H292.813V101.883ZM237.159 100.131H291.058V95.3744H237.159V100.131Z" fill="#161622"/>
<path d="M291.936 114.024H236.281V120.533H291.936V114.024Z" fill="#47AFFF"/>
<path d="M292.813 121.533H235.404V113.272H292.813V121.533ZM237.159 119.781H291.058V115.025H237.159V119.781Z" fill="#161622"/>
<path d="M291.936 133.674H236.281V140.182H291.936V133.674Z" fill="#47AFFF"/>
<path d="M292.813 141.059H235.404V132.798H292.813V141.059ZM237.159 139.306H291.058V134.55H237.159V139.306Z" fill="#161622"/>
<path d="M291.936 153.199H236.281V159.708H291.936V153.199Z" fill="#47AFFF"/>
<path d="M292.813 160.584H235.404V152.323H292.813V160.584ZM237.159 158.832H291.058V154.076H237.159V158.832Z" fill="#161622"/>
<path d="M291.936 172.725H236.281V179.233H291.936V172.725Z" fill="#47AFFF"/>
<path d="M292.813 180.109H235.404V171.849H292.813V180.109ZM237.159 178.357H291.058V173.601H237.159V178.357Z" fill="#161622"/>
<path d="M291.936 192.25H236.281V198.758H291.936V192.25Z" fill="#47AFFF"/>
<path d="M292.813 199.635H235.404V191.374H292.813V199.635ZM237.159 197.882H291.058V193.126H237.159V197.882Z" fill="#161622"/>
<path d="M291.936 211.775H236.281V218.284H291.936V211.775Z" fill="#47AFFF"/>
<path d="M292.813 219.16H235.404V210.899H292.813V219.16ZM237.159 217.408H291.058V212.652H237.159V217.408Z" fill="#161622"/>
<path d="M291.936 231.301H236.281V237.809H291.936V231.301Z" fill="#47AFFF"/>
<path d="M292.813 238.686H235.404V230.425H292.813V238.686ZM237.159 236.933H291.058V232.177H237.159V236.933Z" fill="#161622"/>
<path d="M291.936 250.826H236.281V257.335H291.936V250.826Z" fill="#47AFFF"/>
<path d="M292.813 258.211H235.404V249.95H292.813V258.211ZM237.159 256.459H291.058V251.702H237.159V256.459Z" fill="#161622"/>
<path d="M291.936 270.352H236.281V276.86H291.936V270.352Z" fill="#708DFF"/>
<path d="M292.813 277.736H235.404V269.476H292.813V277.736ZM237.159 275.984H291.058V271.228H237.159V275.984Z" fill="#161622"/>
<path d="M291.936 289.877H236.281V296.385H291.936V289.877Z" fill="#708DFF"/>
<path d="M292.813 297.262H235.404V289.001H292.813V297.262ZM237.159 295.509H291.058V290.753H237.159V295.509Z" fill="#161622"/>
<path d="M204.443 1.50195L173.106 17.7731V337.564H204.443V1.50195Z" fill="#1B49FF"/>
<path d="M205.32 338.44H172.103V17.1473L205.32 0V338.44ZM173.983 336.688H203.691V2.87873L173.983 18.2738V336.688Z" fill="#161622"/>
<path d="M188.022 207.145L138.259 240.062V337.564H236.281V240.062L188.022 207.145Z" fill="#1B49FF"/>
<path d="M237.159 338.44H137.382V239.562L188.022 206.143L237.159 239.562V338.44ZM139.136 336.688H235.404V240.438L188.022 208.146L139.136 240.438V336.688Z" fill="#161622"/>
<path d="M80.2227 240.062L129.484 207.145H188.022L138.259 240.062H80.2227Z" fill="#708DFF"/>
<path d="M138.259 240.939H80.3481L79.8467 239.312L128.983 206.394L129.485 206.269H188.022L188.524 207.896L138.76 240.814L138.259 240.939ZM83.2311 239.186H138.008L185.139 208.021H129.861L83.2311 239.186Z" fill="#161622"/>
<path d="M138.134 240.062H80.2227V337.564H138.134V240.062Z" fill="#708DFF"/>
<path d="M139.136 338.44H79.4707V239.186H139.136V338.44ZM81.1002 336.688H137.256V240.938H81.1002V336.688Z" fill="#161622"/>
<path d="M179.248 250.826H166.964V273.606H179.248V250.826Z" fill="#47AFFF"/>
<path d="M179.248 274.482H166.964L166.086 273.606V250.826L166.964 249.95H179.248L180.125 250.826V273.606L179.248 274.482ZM167.841 272.73H178.37V251.702H167.841V272.73Z" fill="#161622"/>
<path d="M206.072 250.826H193.788V273.606H206.072V250.826Z" fill="#47AFFF"/>
<path d="M205.947 274.482H193.663L192.785 273.606V250.826L193.663 249.95H205.947L206.824 250.826V273.606L205.947 274.482ZM194.666 272.73H205.195V251.702H194.666V272.73Z" fill="#161622"/>
<path d="M185.265 290.252C176.49 290.252 169.345 297.387 169.345 306.148V337.564H201.184V306.148C201.184 297.387 194.039 290.252 185.265 290.252Z" fill="#47AFFF"/>
<path d="M201.184 338.44H169.345L168.468 337.564V306.148C168.468 296.886 175.989 289.376 185.265 289.376C194.54 289.376 202.061 296.886 202.061 306.148V337.564L201.184 338.44ZM170.348 336.688H200.432V306.148C200.432 297.887 193.663 291.129 185.39 291.129C177.117 291.129 170.348 297.887 170.348 306.148V336.688Z" fill="#161622"/>
<path d="M341.824 130.42L373.162 146.691V337.564H341.824V130.42Z" fill="#708DFF"/>
<path d="M374.039 338.44H340.822V128.918L374.039 146.065V338.44ZM342.702 336.688H372.41V147.192L342.702 131.797V336.688Z" fill="#161622"/>
<path d="M341.699 130.42H268.371V337.689H341.699V130.42Z" fill="#1B49FF"/>
<path d="M342.702 338.442H267.618V129.545H342.702V338.442ZM269.373 336.689H340.947V131.297H269.373V336.689Z" fill="#161622"/>
<path d="M291.936 153.199H280.028V174.852H291.936V153.199Z" fill="#47AFFF"/>
<path d="M292.813 175.729H279.15V152.323H292.813V175.729ZM280.905 173.976H291.058V154.076H280.905V173.976Z" fill="#161622"/>
<path d="M310.989 153.199H299.081V174.852H310.989V153.199Z" fill="#47AFFF"/>
<path d="M311.992 175.729H298.329V152.323H311.992V175.729ZM299.958 173.976H310.111V154.076H299.958V173.976Z" fill="#161622"/>
<path d="M330.167 153.199H318.259V174.852H330.167V153.199Z" fill="#47AFFF"/>
<path d="M331.17 175.729H317.507V152.323H331.17V175.729ZM319.136 173.976H329.29V154.076H319.136V173.976Z" fill="#161622"/>
<path d="M291.936 189.748H280.028V211.401H291.936V189.748Z" fill="#47AFFF"/>
<path d="M292.813 212.402H279.15V188.996H292.813V212.402ZM280.905 210.649H291.058V190.748H280.905V210.649Z" fill="#161622"/>
<path d="M310.989 189.748H299.081V211.401H310.989V189.748Z" fill="#47AFFF"/>
<path d="M311.992 212.402H298.329V188.996H311.992V212.402ZM299.958 210.649H310.111V190.748H299.958V210.649Z" fill="#161622"/>
<path d="M330.167 189.748H318.259V211.401H330.167V189.748Z" fill="#47AFFF"/>
<path d="M331.17 212.402H317.507V188.996H331.17V212.402ZM319.136 210.649H329.29V190.748H319.136V210.649Z" fill="#161622"/>
<path d="M291.936 226.419H280.028V248.073H291.936V226.419Z" fill="#47AFFF"/>
<path d="M292.813 248.949H279.15V225.543H292.813V248.949ZM280.905 247.197H291.058V227.296H280.905V247.197Z" fill="#161622"/>
<path d="M310.989 226.419H299.081V248.073H310.989V226.419Z" fill="#47AFFF"/>
<path d="M311.992 248.949H298.329V225.543H311.992V248.949ZM299.958 247.197H310.111V227.296H299.958V247.197Z" fill="#161622"/>
<path d="M330.167 226.419H318.259V248.073H330.167V226.419Z" fill="#47AFFF"/>
<path d="M331.17 248.949H317.507V225.543H331.17V248.949ZM319.136 247.197H329.29V227.296H319.136V247.197Z" fill="#161622"/>
<path d="M291.936 263.092H280.028V284.745H291.936V263.092Z" fill="#47AFFF"/>
<path d="M292.813 285.622H279.15V262.216H292.813V285.622ZM280.905 283.869H291.058V263.969H280.905V283.869Z" fill="#161622"/>
<path d="M310.989 263.092H299.081V284.745H310.989V263.092Z" fill="#47AFFF"/>
<path d="M311.992 285.622H298.329V262.216H311.992V285.622ZM299.958 283.869H310.111V263.969H299.958V283.869Z" fill="#161622"/>
<path d="M330.167 263.092H318.259V284.745H330.167V263.092Z" fill="#47AFFF"/>
<path d="M331.17 285.622H317.507V262.216H331.17V285.622ZM319.136 283.869H329.29V263.969H319.136V283.869Z" fill="#161622"/>
<path d="M291.936 299.641H280.028V321.294H291.936V299.641Z" fill="#47AFFF"/>
<path d="M292.813 322.295H279.15V298.889H292.813V322.295ZM280.905 320.542H291.058V300.641H280.905V320.542Z" fill="#161622"/>
<path d="M310.989 299.641H299.081V321.294H310.989V299.641Z" fill="#47AFFF"/>
<path d="M311.992 322.295H298.329V298.889H311.992V322.295ZM299.958 320.542H310.111V300.641H299.958V320.542Z" fill="#161622"/>
<path d="M330.167 299.641H318.259V321.294H330.167V299.641Z" fill="#47AFFF"/>
<path d="M331.17 322.295H317.507V298.889H331.17V322.295ZM319.136 320.542H329.29V300.641H319.136V320.542Z" fill="#161622"/>
<path d="M250.07 293.131H248.315V337.564H250.07V293.131Z" fill="#161622"/>
<path d="M260.508 261.293C261.471 255.356 257.431 249.764 251.485 248.803C245.539 247.842 239.939 251.876 238.977 257.813C238.014 263.75 242.054 269.342 248 270.303C253.946 271.264 259.546 267.23 260.508 261.293Z" fill="#161622"/>
<path d="M259.795 308.675C261.409 301.882 257.201 295.069 250.398 293.458C243.595 291.848 236.772 296.049 235.159 302.842C233.546 309.635 237.753 316.448 244.556 318.058C251.36 319.669 258.182 315.468 259.795 308.675Z" fill="#161622"/>
<path d="M268.166 281.482C272.425 277.23 272.425 270.335 268.166 266.083C263.908 261.83 257.003 261.83 252.744 266.083C248.485 270.335 248.485 277.23 252.744 281.482C257.003 285.734 263.908 285.734 268.166 281.482Z" fill="#161622"/>
<path d="M234.902 310.028C240.925 310.028 245.808 305.153 245.808 299.139C245.808 293.125 240.925 288.25 234.902 288.25C228.88 288.25 223.997 293.125 223.997 299.139C223.997 305.153 228.88 310.028 234.902 310.028Z" fill="#161622"/>
<path d="M251.371 290.005C257.343 284.042 257.343 274.373 251.371 268.41C245.399 262.447 235.716 262.447 229.744 268.41C223.772 274.373 223.772 284.042 229.744 290.005C235.716 295.968 245.399 295.968 251.371 290.005Z" fill="#161622"/>
<path d="M260.474 309.778C268.919 309.778 275.766 302.941 275.766 294.508C275.766 286.074 268.919 279.238 260.474 279.238C252.028 279.238 245.181 286.074 245.181 294.508C245.181 302.941 252.028 309.778 260.474 309.778Z" fill="#161622"/>
<path d="M262.502 297.691C264.771 288.567 259.203 279.334 250.066 277.069C240.929 274.803 231.682 280.363 229.413 289.486C227.144 298.61 232.712 307.843 241.849 310.109C250.986 312.374 260.233 306.815 262.502 297.691Z" fill="#161622"/>
<path d="M399.861 332.182C399.861 334.059 399.61 335.812 399.109 337.564H358.12C357.619 335.812 357.368 334.059 357.368 332.182C357.368 331.431 357.368 330.805 357.493 330.054C358.621 319.415 367.646 311.029 378.552 311.029C387.201 311.029 394.596 316.161 397.855 323.546C399.234 326.174 399.861 329.053 399.861 332.182Z" fill="#161622"/>
<path d="M122.34 332.182C122.34 334.059 122.089 335.812 121.588 337.564H80.599C80.0976 335.812 79.8469 334.059 79.8469 332.182C79.8469 331.431 79.8469 330.805 79.9723 330.054C81.1004 319.415 90.1255 311.029 101.031 311.029C109.68 311.029 117.075 316.161 120.334 323.546C121.588 326.174 122.34 329.053 122.34 332.182Z" fill="#161622"/>
</svg>
